<svg width="116" height="112" viewBox="0 0 116 112" fill="none" xmlns="http://www.w3.org/2000/svg">
<g clip-path="url(#clip0)">
<path d="M64.2851 2.48182L93.4258 19.5645L93.3632 48.2633L68.4123 62.5506L43.5864 48.1391L43.6489 19.4402L54.8425 13.042L50.1524 10.6194L39.2716 16.7691L39.2091 16.8312L39.084 50.6859L68.4123 67.7064L97.8031 50.8723L97.9282 17.0176L68.5999 -0.00292969L64.2851 2.48182Z" fill="#3B3B3B"/>
<path d="M47.9007 -0.00292969L18.5098 16.8312L18.3848 50.6859L47.7131 67.7064L52.4656 64.9732L47.7131 62.5506L22.8872 48.1391L22.9497 19.4402L47.9007 5.15292L72.7265 19.5645L72.664 48.2633L61.3454 54.7236L65.9104 57.7053L77.1039 50.8102L77.229 17.0176L47.9007 -0.00292969Z" fill="#EB8B2D"/>
<path d="M0 95.4753L1.87601 94.0465C3.06415 95.7858 4.50243 96.6555 6.19084 96.6555C7.06631 96.6555 7.75418 96.4692 8.25445 96.0343C8.75472 95.5995 9.06739 95.0404 9.06739 94.3571C9.06739 93.798 8.87978 93.3632 8.56712 93.0526C8.19191 92.742 7.56658 92.3693 6.69111 91.9345L4.87763 91.0648C3.56442 90.5058 2.62642 89.8225 2.00108 89.1391C1.37574 88.4558 1.06307 87.5862 1.06307 86.5302C1.06307 85.2257 1.56334 84.1697 2.56388 83.3C3.56442 82.4924 4.81509 82.0576 6.25337 82.0576C7.37898 82.0576 8.44205 82.3061 9.38005 82.8652C10.3181 83.4242 11.0685 84.1075 11.5687 84.9772L9.69272 86.4059C8.81725 85.1014 7.62911 84.4181 6.19084 84.4181C5.44043 84.4181 4.87763 84.6045 4.37736 84.9151C3.93962 85.2878 3.68949 85.7226 3.68949 86.4059C3.68949 86.7165 3.75202 86.965 3.81456 87.1514C3.87709 87.3377 4.00216 87.5241 4.25229 87.7725C4.50243 87.9589 4.69003 88.0831 4.75256 88.1452C4.81509 88.2074 5.1903 88.3316 5.7531 88.6422C5.87817 88.7043 5.9407 88.7043 6.00323 88.7664L7.87925 89.6361C9.25499 90.2573 10.2555 90.9406 10.8809 91.6239C11.5062 92.3072 11.8189 93.239 11.8189 94.295C11.8189 95.7237 11.3186 96.8419 10.2555 97.7115C9.19245 98.5812 7.87925 99.016 6.3159 99.016C5.0027 99.016 3.75202 98.7054 2.68895 98.0842C1.50081 97.4631 0.625337 96.5934 0 95.4753Z" fill="#3B3B3B"/>
<path d="M27.5154 82.3672L21.8248 92.1819V98.7665H19.1984V92.1819L13.5078 82.3672H16.4469L20.5116 89.5108L24.6388 82.3672H27.5154Z" fill="#3B3B3B"/>
<path d="M41.2735 82.3676H43.8999V99.0154H43.0244L32.9565 87.6477V98.7669H30.3301V82.1191H31.2681L41.2735 93.4247V82.3676Z" fill="#3B3B3B"/>
<path d="M48.0879 98.7665V82.3672H58.9688V84.7277H50.7143V88.9518H56.9051V91.2501H50.7143V96.4681H59.2189V98.8286H48.0879V98.7665Z" fill="#3B3B3B"/>
<path d="M75.7279 98.7665H72.7263L68.0362 92.4304H65.0346V98.7665H62.4082V82.3672H68.4114C70.0998 82.3672 71.413 82.8641 72.4761 83.7959C73.5392 84.7277 74.0395 85.9079 74.0395 87.3988C74.0395 88.4548 73.7893 89.4487 73.2265 90.2563C72.6637 91.0638 71.9133 91.685 70.9128 92.0577L75.7279 98.7665ZM64.9721 84.7277V90.132H68.2864C69.1618 90.132 69.9122 89.8835 70.4125 89.3866C70.9128 88.8896 71.2254 88.2685 71.2254 87.4609C71.2254 86.6534 70.9753 85.9701 70.4125 85.4731C69.9122 84.9762 69.1618 84.7277 68.2864 84.7277H64.9721Z" fill="#3B3B3B"/>
<path d="M76.7277 90.5669C76.6652 88.2064 77.5407 86.2186 79.2291 84.5414C80.98 82.8642 83.0437 82.0566 85.4199 82.0566C88.2965 82.0566 90.6102 83.1748 92.2361 85.4732L90.2976 87.0261C89.0469 85.2868 87.421 84.4171 85.3574 84.4171C83.6065 84.4171 82.2307 84.9762 81.1051 86.1565C79.9795 87.3367 79.4167 88.7655 79.4167 90.5048C79.4167 92.2441 79.9795 93.735 81.1051 94.9152C82.2307 96.0955 83.7315 96.6545 85.4825 96.6545C87.6711 96.6545 89.297 95.847 90.4226 94.1698V92.4305H85.3574V90.07H93.1116V94.6667C92.3612 95.9712 91.2981 97.0273 89.9224 97.8348C88.5466 98.6423 87.0458 99.0151 85.4199 99.0151C82.9811 99.0772 80.9175 98.2075 79.2291 96.5924C77.5407 94.9152 76.6652 92.9274 76.7277 90.5669Z" fill="#3B3B3B"/>
<path d="M108.558 82.3672L102.868 92.1819V98.7665H100.241V92.1819L94.5508 82.3672H97.4899L101.555 89.5108L105.682 82.3672H108.558Z" fill="#3B3B3B"/>
<path d="M112.686 98.5179C112.311 98.1452 112.123 97.7103 112.123 97.1513C112.123 96.5922 112.311 96.1574 112.686 95.7846C113.061 95.4119 113.561 95.2256 114.062 95.2256C114.624 95.2256 115.062 95.4119 115.437 95.7846C115.813 96.1574 116 96.5922 116 97.1513C116 97.7103 115.813 98.1452 115.437 98.5179C115.062 98.8906 114.624 99.0769 114.062 99.0769C113.561 99.0148 113.061 98.8285 112.686 98.5179Z" fill="#EB8B2D"/>
<path d="M21.4492 107.9C21.4492 107.155 21.6994 106.471 22.2622 105.975C22.825 105.415 23.5128 105.167 24.2632 105.167C25.2012 105.167 25.9516 105.54 26.4519 106.285L25.8266 106.782C25.4514 106.223 24.8886 105.912 24.2007 105.912C23.6379 105.912 23.2002 106.099 22.825 106.471C22.4498 106.844 22.2622 107.341 22.2622 107.9C22.2622 108.459 22.4498 108.956 22.825 109.329C23.2002 109.702 23.7004 109.888 24.2632 109.888C24.9511 109.888 25.5139 109.64 25.8891 109.08V108.521H24.2632V107.776H26.7646V109.267C26.5144 109.702 26.2018 110.012 25.7015 110.323C25.2638 110.571 24.7635 110.696 24.2007 110.696C23.3878 110.696 22.7624 110.447 22.1996 109.888C21.7619 109.329 21.4492 108.646 21.4492 107.9Z" fill="#8D8D8D"/>
<path d="M27.8281 110.569V104.481H28.7036V110.569H27.8281Z" fill="#8D8D8D"/>
<path d="M29.6406 108.581C29.6406 108.022 29.8282 107.525 30.266 107.09C30.7037 106.655 31.204 106.469 31.7668 106.469C32.3296 106.469 32.8298 106.655 33.2676 107.09C33.7053 107.525 33.8929 108.022 33.8929 108.581C33.8929 109.14 33.7053 109.637 33.2676 110.072C32.8298 110.506 32.3296 110.693 31.7668 110.693C31.204 110.693 30.7037 110.506 30.266 110.072C29.8282 109.637 29.6406 109.14 29.6406 108.581ZM33.0174 108.581C33.0174 108.208 32.8924 107.897 32.6422 107.649C32.3921 107.401 32.142 107.276 31.7668 107.276C31.3916 107.276 31.1414 107.401 30.8913 107.649C30.6412 107.897 30.5161 108.208 30.5161 108.581C30.5161 108.954 30.6412 109.264 30.8913 109.513C31.1414 109.761 31.3916 109.885 31.7668 109.885C32.142 109.885 32.3921 109.761 32.6422 109.513C32.8924 109.264 33.0174 108.954 33.0174 108.581Z" fill="#8D8D8D"/>
<path d="M39.0218 108.582C39.0218 109.141 38.8342 109.638 38.459 110.073C38.0838 110.445 37.646 110.694 37.0832 110.694C36.4579 110.694 36.0201 110.507 35.7075 110.073V110.632H34.8945V104.544H35.77V107.091C36.0827 106.718 36.5204 106.532 37.0832 106.532C37.646 106.532 38.0838 106.718 38.459 107.153C38.8342 107.526 39.0218 108.023 39.0218 108.582ZM37.7711 109.513C38.0212 109.265 38.1463 108.954 38.1463 108.582C38.1463 108.209 38.0212 107.898 37.7711 107.65C37.5209 107.401 37.2708 107.277 36.8956 107.277C36.5829 107.277 36.2703 107.401 36.0201 107.588C35.77 107.836 35.6449 108.147 35.6449 108.52C35.6449 108.954 35.77 109.265 36.0201 109.451C36.2703 109.7 36.5204 109.762 36.8956 109.762C37.2708 109.886 37.5209 109.762 37.7711 109.513Z" fill="#8D8D8D"/>
<path d="M43.1483 108.146V110.569H42.3354V110.134C42.0227 110.507 41.585 110.693 41.0847 110.693C40.647 110.693 40.3343 110.569 40.0842 110.383C39.8341 110.196 39.709 109.886 39.709 109.575C39.709 109.264 39.8341 108.954 40.0842 108.768C40.3343 108.581 40.7095 108.457 41.1473 108.457H42.2729V108.208C42.2729 107.96 42.2103 107.712 42.0227 107.587C41.8977 107.463 41.6475 107.339 41.3974 107.339C41.0222 107.339 40.647 107.525 40.2718 107.898L39.7715 107.401C40.1467 106.842 40.7095 106.531 41.4599 106.531C41.9602 106.531 42.3354 106.655 42.6481 106.966C43.0233 107.215 43.1483 107.649 43.1483 108.146ZM42.2729 109.078V109.016H41.2723C40.7721 109.016 40.5845 109.202 40.5845 109.513C40.5845 109.699 40.647 109.824 40.7721 109.886C40.8971 110.01 41.0847 110.01 41.2723 110.01C41.585 110.01 41.8351 109.948 42.0227 109.761C42.2103 109.575 42.2729 109.327 42.2729 109.078Z" fill="#8D8D8D"/>
<path d="M44.3359 110.569V104.481H45.2114V110.569H44.3359Z" fill="#8D8D8D"/>
<path d="M48.4004 107.9C48.4004 107.155 48.6505 106.471 49.2133 105.975C49.7761 105.415 50.464 105.167 51.2144 105.167C51.7147 105.167 52.1524 105.291 52.5276 105.478C52.9654 105.726 53.278 105.975 53.4656 106.347L52.8403 106.844C52.4651 106.223 51.9023 105.912 51.2144 105.912C50.6516 105.912 50.2139 106.099 49.8387 106.471C49.4635 106.844 49.2759 107.341 49.2759 107.9C49.2759 108.459 49.4635 108.956 49.8387 109.329C50.2139 109.702 50.6516 109.888 51.2144 109.888C51.9023 109.888 52.4651 109.577 52.8403 108.956L53.4656 109.453C53.2155 109.826 52.9028 110.136 52.5276 110.323C52.1524 110.571 51.6521 110.633 51.1519 110.633C50.4015 110.633 49.7136 110.385 49.1508 109.826C48.7131 109.329 48.4004 108.646 48.4004 107.9Z" fill="#8D8D8D"/>
<path d="M54.2165 108.581C54.2165 108.022 54.4041 107.525 54.8419 107.09C55.2796 106.655 55.7799 106.469 56.3427 106.469C56.9055 106.469 57.4058 106.655 57.8435 107.09C58.2812 107.525 58.4688 108.022 58.4688 108.581C58.4688 109.14 58.2812 109.637 57.8435 110.072C57.4058 110.506 56.9055 110.693 56.3427 110.693C55.7799 110.693 55.2796 110.506 54.8419 110.072C54.4041 109.637 54.154 109.14 54.2165 108.581ZM57.5308 108.581C57.5308 108.208 57.4058 107.897 57.1556 107.649C56.9055 107.401 56.6554 107.276 56.2802 107.276C55.905 107.276 55.6548 107.401 55.4047 107.649C55.1545 107.897 55.0295 108.208 55.0295 108.581C55.0295 108.954 55.1545 109.264 55.4047 109.513C55.6548 109.761 55.905 109.885 56.2802 109.885C56.6554 109.885 56.9055 109.761 57.1556 109.513C57.4058 109.264 57.5308 108.954 57.5308 108.581Z" fill="#8D8D8D"/>
<path d="M59.1562 108.581C59.1562 108.022 59.3439 107.525 59.7816 107.09C60.2193 106.655 60.7196 106.469 61.2824 106.469C61.8452 106.469 62.3455 106.655 62.7832 107.09C63.2209 107.525 63.4085 108.022 63.4085 108.581C63.4085 109.14 63.2209 109.637 62.7832 110.072C62.3455 110.506 61.8452 110.693 61.2824 110.693C60.7196 110.693 60.2193 110.506 59.7816 110.072C59.3439 109.637 59.1562 109.14 59.1562 108.581ZM62.4705 108.581C62.4705 108.208 62.3455 107.897 62.0953 107.649C61.8452 107.401 61.5951 107.276 61.2199 107.276C60.8447 107.276 60.5945 107.401 60.3444 107.649C60.0943 107.897 59.9692 108.208 59.9692 108.581C59.9692 108.954 60.0943 109.264 60.3444 109.513C60.5945 109.761 60.8447 109.885 61.2199 109.885C61.5951 109.885 61.8452 109.761 62.0953 109.513C62.3455 109.264 62.4705 108.954 62.4705 108.581Z" fill="#8D8D8D"/>
<path d="M68.4749 108.581C68.4749 109.202 68.2873 109.637 67.9121 110.071C67.5369 110.506 67.0991 110.693 66.5363 110.693C65.9735 110.693 65.5358 110.506 65.2231 110.134V112.059H64.3477V106.655H65.1606V107.214C65.4733 106.779 65.911 106.593 66.5363 106.593C67.0991 106.593 67.5369 106.779 67.9121 107.214C68.2873 107.649 68.4749 108.021 68.4749 108.581ZM67.2867 109.512C67.5369 109.264 67.6619 108.953 67.6619 108.581C67.6619 108.208 67.5369 107.897 67.2867 107.649C67.0366 107.4 66.7865 107.276 66.4113 107.276C66.0986 107.276 65.7859 107.4 65.5358 107.587C65.2857 107.835 65.1606 108.146 65.1606 108.518C65.1606 108.953 65.2857 109.264 65.5358 109.45C65.7859 109.699 66.0361 109.761 66.4113 109.761C66.7239 109.885 67.0366 109.761 67.2867 109.512Z" fill="#8D8D8D"/>
<path d="M73.0391 108.892H70.0375C70.1 109.202 70.2251 109.451 70.4752 109.637C70.7254 109.823 70.9755 109.886 71.3507 109.886C71.7885 109.886 72.1637 109.699 72.5389 109.389L72.9766 109.948C72.5389 110.382 71.9761 110.569 71.4133 110.569C70.7879 110.569 70.2876 110.382 69.9124 109.948C69.4747 109.575 69.2871 109.078 69.2871 108.457C69.2871 107.898 69.4747 107.401 69.9124 106.966C70.3502 106.531 70.7879 106.345 71.3507 106.345C71.851 106.345 72.2887 106.531 72.6639 106.842C73.0391 107.214 73.1642 107.649 73.1642 108.146C73.1642 108.519 73.1017 108.643 73.0391 108.892ZM70.1 108.208H72.2887C72.2887 107.898 72.1637 107.649 71.9761 107.525C71.7885 107.339 71.5383 107.277 71.2257 107.277C70.913 107.277 70.7254 107.339 70.4752 107.525C70.2876 107.649 70.1626 107.898 70.1 108.208Z" fill="#8D8D8D"/>
<path d="M76.4173 106.593V107.339H76.1671C75.7919 107.339 75.5418 107.463 75.2917 107.649C75.1041 107.836 74.979 108.084 74.979 108.457V110.569H74.1035V106.593H74.9165V107.09C75.2291 106.718 75.6043 106.531 76.1046 106.531C76.1671 106.593 76.2922 106.593 76.4173 106.593Z" fill="#8D8D8D"/>
<path d="M80.2304 108.146V110.569H79.4174V110.134C79.1048 110.507 78.667 110.693 78.1668 110.693C77.729 110.693 77.4164 110.569 77.1662 110.383C76.9161 110.196 76.791 109.886 76.791 109.575C76.791 109.264 76.9161 108.954 77.1662 108.768C77.4164 108.581 77.7916 108.457 78.2293 108.457H79.3549V108.208C79.3549 107.96 79.2924 107.712 79.1048 107.587C78.9797 107.463 78.7296 107.339 78.4794 107.339C78.1042 107.339 77.729 107.525 77.3538 107.898L76.8535 107.401C77.2288 106.842 77.7916 106.531 78.542 106.531C79.0422 106.531 79.4174 106.655 79.7301 106.966C80.0428 107.277 80.2304 107.649 80.2304 108.146ZM79.4174 109.078V109.016H78.4169C77.9166 109.016 77.729 109.202 77.729 109.513C77.729 109.699 77.7916 109.824 77.9166 109.886C78.0417 110.01 78.2293 110.01 78.4169 110.01C78.7296 110.01 78.9797 109.948 79.1673 109.761C79.3549 109.575 79.4174 109.327 79.4174 109.078Z" fill="#8D8D8D"/>
<path d="M83.7944 109.824V110.569C83.4818 110.631 83.2942 110.631 83.1066 110.631C82.6688 110.631 82.2936 110.507 82.0435 110.259C81.7934 110.01 81.6683 109.7 81.6683 109.203V107.277H81.043V106.532H81.6683V105.476H82.5438V106.532H83.7319V107.277H82.5438V109.141C82.5438 109.389 82.6063 109.575 82.7314 109.7C82.8564 109.824 83.044 109.886 83.3567 109.886C83.3567 109.886 83.5443 109.886 83.7944 109.824Z" fill="#8D8D8D"/>
<path d="M84.67 105.537C84.5449 105.413 84.4824 105.289 84.4824 105.165C84.4824 104.978 84.5449 104.854 84.67 104.792C84.7951 104.668 84.9202 104.605 85.1078 104.605C85.2954 104.605 85.4204 104.668 85.5455 104.792C85.6706 104.916 85.7331 105.04 85.7331 105.165C85.7331 105.351 85.6706 105.475 85.5455 105.537C85.4204 105.661 85.2954 105.724 85.1078 105.724C84.9202 105.661 84.7951 105.599 84.67 105.537ZM84.67 110.569V106.593H85.5455V110.569H84.67Z" fill="#8D8D8D"/>
<path d="M86.4844 108.581C86.4844 108.022 86.672 107.525 87.1097 107.09C87.5475 106.655 88.0477 106.469 88.6105 106.469C89.1733 106.469 89.6736 106.655 90.1113 107.09C90.5491 107.525 90.7367 108.022 90.7367 108.581C90.7367 109.14 90.5491 109.637 90.1113 110.072C89.6736 110.506 89.1733 110.693 88.6105 110.693C88.0477 110.693 87.5475 110.506 87.1097 110.072C86.672 109.637 86.4844 109.14 86.4844 108.581ZM89.8612 108.581C89.8612 108.208 89.7361 107.897 89.486 107.649C89.2359 107.401 88.9857 107.276 88.6105 107.276C88.2353 107.276 87.9852 107.401 87.7351 107.649C87.4849 107.897 87.3598 108.208 87.3598 108.581C87.3598 108.954 87.4849 109.264 87.7351 109.513C87.9852 109.761 88.2353 109.885 88.6105 109.885C88.9857 109.885 89.2359 109.761 89.486 109.513C89.7361 109.264 89.8612 108.954 89.8612 108.581Z" fill="#8D8D8D"/>
<path d="M95.1757 108.084V110.569H94.3002V108.208C94.3002 107.96 94.2377 107.711 94.0501 107.525C93.8625 107.338 93.6749 107.276 93.4248 107.276C93.1746 107.276 92.9245 107.338 92.7994 107.525C92.6744 107.711 92.5493 107.897 92.5493 108.208V110.569H91.6738V106.593H92.4868V106.966C92.7994 106.655 93.1746 106.469 93.6749 106.469C94.1126 106.469 94.4878 106.593 94.738 106.904C95.0506 107.214 95.1757 107.587 95.1757 108.084Z" fill="#8D8D8D"/>
</g>
<defs>
<clipPath id="clip0">
<rect width="116" height="112" fill="white"/>
</clipPath>
</defs>
</svg>
