<svg width="222" height="23" viewBox="0 0 222 23" fill="none" xmlns="http://www.w3.org/2000/svg">
<path d="M9.50855 0.298828L0 21.6483H4.78515L11.6387 5.76926L18.5232 21.6483H23.37L13.8615 0.298828L9.50855 0.298828Z" fill="#2399F1"/>
<path d="M69.0332 4.34881H76.0411V21.6472H80.5793V4.34881H87.6181V0.416016L69.0332 0.416016V4.34881Z" fill="#2399F1"/>
<path d="M51.003 14.0182L39.8274 0.416016L35.9375 0.416016V21.6472H40.4139V8.01548L51.6513 21.6472H55.4177V0.416016L51.003 0.416016V14.0182Z" fill="#2399F1"/>
<path d="M153.987 10.3811C154.79 9.34612 155.191 8.10419 155.191 6.68483C155.191 4.82193 154.512 3.31387 153.123 2.16064C151.764 0.977844 149.912 0.416016 147.566 0.416016L137.316 0.416016V21.6472H141.885V13.0719H145.714L152.166 21.6472H157.445L150.622 12.5692C152.073 12.1553 153.185 11.416 153.987 10.3811ZM149.758 8.72516C149.171 9.1687 148.369 9.40526 147.35 9.40526H141.916V4.2601H147.35C148.369 4.2601 149.202 4.49666 149.758 4.94021C150.344 5.38376 150.622 6.0343 150.622 6.83268C150.622 7.66064 150.344 8.28161 149.758 8.72516Z" fill="#2399F1"/>
<path d="M219.777 11.0621C218.419 10.1454 216.813 9.40616 214.961 8.84433C214.344 8.66691 213.541 8.43035 212.553 8.16422C211.812 7.9868 211.226 7.77981 210.763 7.51368C209.991 7.15884 209.589 6.65616 209.589 6.06476C209.589 4.67497 210.855 3.9653 213.356 3.9653C215.887 3.9653 218.295 4.6454 220.549 5.97605V1.74755C218.326 0.594328 215.887 0.00292969 213.294 0.00292969C210.732 0.00292969 208.694 0.535188 207.181 1.62927C205.669 2.69379 204.928 4.17228 204.928 6.06476C204.928 7.07013 205.175 8.07551 205.7 9.02175C206.008 9.52444 206.687 10.1454 207.799 10.8847C208.108 11.0621 208.571 11.2691 209.219 11.5352C209.991 11.8309 210.485 11.9787 210.701 12.0379L212.337 12.5406L214.097 13.0433L214.869 13.2798C215.393 13.4572 215.826 13.6347 216.134 13.8121C216.906 14.1669 217.277 14.7287 217.277 15.5567C217.277 16.3255 216.875 16.9169 216.073 17.3605C215.27 17.804 214.251 18.011 213.016 18.011C211.504 18.011 209.991 17.7449 208.447 17.183C206.934 16.6212 205.7 15.9411 204.773 15.1723V19.726C207.058 21.2341 209.867 22.0029 213.201 22.0029C215.733 22.0029 217.832 21.4115 219.499 20.2583C221.166 19.0755 222 17.4787 222 15.4384C222 13.5459 221.259 12.0674 219.777 11.0621Z" fill="#2399F1"/>
<path d="M105.337 0.297852L107.282 4.76291L108.857 8.42957L112.222 16.1769L115.556 8.42957L117.161 4.76291L119.075 0.297852L123.86 0.297852L114.352 21.6473H109.999L100.49 0.297852L105.337 0.297852Z" fill="#2399F1"/>
<path d="M188.254 17.7139H171.645V21.6171H188.254V17.7139Z" fill="#2399F1"/>
<path d="M188.254 9.07812H171.645V12.9814H188.254V9.07812Z" fill="#2399F1"/>
<path d="M188.254 0.416016L171.645 0.416016V4.31924H188.254V0.416016Z" fill="#2399F1"/>
</svg>
