<svg width="80" height="80" viewBox="0 0 80 80" fill="none" xmlns="http://www.w3.org/2000/svg">
<circle cx="40" cy="40" r="40" fill="#41C87F"/>
<path d="M46.4844 37.0312C46.9156 37.0312 47.2656 36.6812 47.2656 36.25C47.2656 35.8188 46.9156 35.4688 46.4844 35.4688C46.0532 35.4688 45.7031 35.8188 45.7031 36.25C45.7031 36.6812 46.0532 37.0312 46.4844 37.0312Z" fill="white"/>
<path d="M25.7031 26.0938C26.1343 26.0938 26.4844 25.7437 26.4844 25.3125C26.4844 24.8813 26.1343 24.5312 25.7031 24.5312C25.2719 24.5312 24.9219 24.8813 24.9219 25.3125C24.9219 25.7437 25.2719 26.0938 25.7031 26.0938Z" fill="white"/>
<path d="M29.2303 46.8701L30.4144 47.3782C31.3922 47.7969 32.5137 47.7969 33.4924 47.3779L34.6756 46.8704C35.2045 46.6437 35.7214 46.3855 36.2228 46.1005C36.9168 51.1823 40.3781 55.6882 45.3241 57.8076L46.5082 58.3157C47.4857 58.7341 48.6075 58.7344 49.5859 58.3154L50.7693 57.8079C56.2717 55.4501 60 50.0623 60 44.1647V34.6875C60 33.3951 58.9487 32.3438 57.6562 32.3438H43.9062V23.75C43.9062 22.4576 42.8549 21.4062 41.5625 21.4062H22.3438C21.0513 21.4062 20 22.4576 20 23.75V33.2272C20 39.1324 23.7357 44.5157 29.2303 46.8701ZM58.4375 34.6875V44.1647C58.4375 49.343 55.1086 54.2487 50.1538 56.3718L48.9706 56.8796C48.3838 57.1307 47.7103 57.1307 47.1237 56.8796L45.9396 56.3718C41.2589 54.3658 38.0606 49.993 37.6932 45.1514C38.8028 44.3427 39.7836 43.4052 40.6198 42.3709C41.3217 42.9581 42.207 43.2812 43.125 43.2812C44.0775 43.2812 44.9954 42.9343 45.7092 42.3047C46.0327 42.019 46.0635 41.5256 45.7782 41.2018C45.4926 40.8783 44.9988 40.8475 44.6753 41.1331C44.2471 41.5106 43.6966 41.7188 43.125 41.7188C42.5534 41.7188 42.0029 41.5109 41.5747 41.1331C41.5634 41.1227 41.5512 41.1142 41.5393 41.1047C42.9401 38.9505 43.764 36.4743 43.8882 33.9062H57.6562C58.0872 33.9062 58.4375 34.2566 58.4375 34.6875ZM21.5625 23.75C21.5625 23.3191 21.9128 22.9688 22.3438 22.9688H41.5625C41.9934 22.9688 42.3438 23.3191 42.3438 23.75V33.2272C42.3438 38.5623 38.9444 43.3417 34.0601 45.4343L32.8769 45.9421C32.2897 46.1932 31.6162 46.1932 31.03 45.9421L29.8459 45.4343C24.8914 43.3112 21.5625 38.4055 21.5625 33.2272V23.75Z" fill="white"/>
<path d="M36.6406 35.4688H27.2656C26.8341 35.4688 26.4844 35.8185 26.4844 36.25C26.4844 39.2654 28.9377 41.7188 31.9531 41.7188C34.9686 41.7188 37.4219 39.2654 37.4219 36.25C37.4219 35.8185 37.0721 35.4688 36.6406 35.4688ZM31.9531 40.1562C30.0668 40.1562 28.4885 38.8113 28.1253 37.0303H35.7809C35.4178 38.811 33.8394 40.1562 31.9531 40.1562Z" fill="white"/>
<path d="M27.2662 30.7812C27.8378 30.7812 28.3884 30.9894 28.8165 31.3672C29.1406 31.6531 29.6344 31.6208 29.9194 31.2982C30.2048 30.9747 30.1739 30.481 29.8504 30.1956C29.1366 29.5657 28.2187 29.2188 27.2662 29.2188C26.3138 29.2188 25.3961 29.5657 24.6823 30.1956C24.3588 30.481 24.328 30.9747 24.6133 31.2982C24.8987 31.6217 25.3924 31.6525 25.7159 31.3672C26.1441 30.9894 26.6946 30.7812 27.2662 30.7812Z" fill="white"/>
<path d="M34.057 30.1953C33.7332 30.481 33.7024 30.9744 33.9881 31.2982C34.2734 31.6217 34.7672 31.6525 35.0907 31.3669C35.5188 30.9894 36.0694 30.7813 36.641 30.7813C37.2126 30.7813 37.7631 30.9891 38.1913 31.3669C38.5157 31.6531 39.0094 31.6208 39.2942 31.2982C39.5795 30.9744 39.5487 30.481 39.2252 30.1953C38.5114 29.5654 37.5934 29.2188 36.641 29.2188C35.6885 29.2188 34.7708 29.5654 34.057 30.1953Z" fill="white"/>
<path d="M28.8281 26.0938H38.2031C38.6346 26.0938 38.9844 25.744 38.9844 25.3125C38.9844 24.881 38.6346 24.5312 38.2031 24.5312H28.8281C28.3966 24.5312 28.0469 24.881 28.0469 25.3125C28.0469 25.744 28.3966 26.0938 28.8281 26.0938Z" fill="white"/>
<path d="M42.5781 51.875C42.5781 52.3065 42.9279 52.6562 43.3594 52.6562H52.7344C53.1659 52.6562 53.5156 52.3065 53.5156 51.875C53.5156 48.8596 51.0623 46.4062 48.0469 46.4062C45.0314 46.4062 42.5781 48.8596 42.5781 51.875ZM48.0469 47.9688C49.9332 47.9688 51.5118 49.313 51.8747 51.0938H44.2191C44.5819 49.313 46.1606 47.9688 48.0469 47.9688Z" fill="white"/>
<path d="M54.285 41.1333C53.8568 41.5112 53.3063 41.7193 52.7347 41.7193C52.1631 41.7193 51.6126 41.5112 51.1844 41.1333C50.8609 40.848 50.3672 40.8788 50.0818 41.2023C49.7962 41.5258 49.827 42.0196 50.1508 42.3049C50.8646 42.9348 51.7823 43.2818 52.7347 43.2818C53.6872 43.2818 54.6048 42.9348 55.3186 42.3049C55.6424 42.0196 55.6732 41.5258 55.3876 41.2023C55.1023 40.8788 54.6085 40.848 54.285 41.1333Z" fill="white"/>
<path d="M49.6094 37.0312H54.2969C54.7284 37.0312 55.0781 36.6815 55.0781 36.25C55.0781 35.8185 54.7284 35.4688 54.2969 35.4688H49.6094C49.1779 35.4688 48.8281 35.8185 48.8281 36.25C48.8281 36.6815 49.1779 37.0312 49.6094 37.0312Z" fill="white"/>
</svg>
