<svg width="80" height="80" viewBox="0 0 80 80" fill="none" xmlns="http://www.w3.org/2000/svg">
<circle cx="40" cy="40" r="40" fill="#BA84FF"/>
<g clip-path="url(#clip0)">
<path d="M59.3329 56.0003H57.3329V43.3336C57.3327 42.9655 57.0339 42.6672 56.6657 42.6675C56.4485 42.6676 56.2449 42.7736 56.1202 42.9516L46.7869 56.285C46.5759 56.5867 46.6495 57.0024 46.9512 57.2133C47.0631 57.2916 47.1963 57.3336 47.3329 57.3336H55.9996V59.3336C55.9996 59.7018 56.2981 60.0003 56.6662 60.0003C57.0344 60.0003 57.3329 59.7018 57.3329 59.3336V57.3336H59.3329C59.7011 57.3336 59.9996 57.0351 59.9996 56.667C59.9996 56.2988 59.7011 56.0003 59.3329 56.0003ZM55.9996 56.0003H48.6129L55.9996 45.4483V56.0003Z" fill="white"/>
<path d="M47.3335 58.6667H39.4408L46.7788 50.026C46.7955 50.0062 46.8111 49.9855 46.8255 49.964C48.206 47.9208 47.7462 45.1546 45.7788 43.668C43.3867 41.9493 40.0542 42.4952 38.3356 44.8873C37.6838 45.7943 37.3333 46.8831 37.3335 48C37.3335 48.3682 37.632 48.6667 38.0002 48.6667C38.3683 48.6667 38.6668 48.3682 38.6668 48C38.6666 45.7908 40.4573 43.9998 42.6664 43.9996C43.5037 43.9995 44.32 44.2622 45.0002 44.7507C46.3782 45.8066 46.6992 47.7513 45.7335 49.194L37.4922 58.902C37.2539 59.1828 37.2884 59.6034 37.5692 59.8417C37.6896 59.9438 37.8422 59.9999 38.0002 60H47.3335C47.7017 60 48.0002 59.7015 48.0002 59.3333C48.0002 58.9652 47.7017 58.6667 47.3335 58.6667Z" fill="white"/>
<path d="M38.0147 55.346C38.0286 54.9781 37.7415 54.6686 37.3736 54.6547C37.3735 54.6547 37.3734 54.6547 37.3733 54.6547C28.6758 54.3318 21.6951 47.3636 21.3567 38.6667H24C24.3682 38.6667 24.6667 38.3682 24.6667 38C24.6667 37.6318 24.3682 37.3333 24 37.3333H21.3567C21.6903 28.6517 28.6517 21.6906 37.3333 21.3573V23.3333C37.3333 23.7015 37.6318 24 38 24C38.3682 24 38.6667 23.7015 38.6667 23.3333V21.3573C47.2295 21.6885 54.1405 28.469 54.6347 37.024L52.0347 34.424C51.7698 34.1682 51.3478 34.1755 51.092 34.4403C50.8425 34.6987 50.8425 35.1082 51.092 35.3667L54.8133 39.088C54.8834 39.1728 54.9738 39.2386 55.076 39.2793C55.1021 39.2872 55.1286 39.2937 55.1553 39.2987C55.2011 39.3152 55.2484 39.3266 55.2967 39.3327C55.3033 39.3327 55.3093 39.3327 55.316 39.3327C55.3227 39.3327 55.3287 39.3327 55.3347 39.3327C55.3854 39.3288 55.4356 39.319 55.484 39.3033C55.5114 39.3 55.5386 39.2949 55.5653 39.288C55.6556 39.2559 55.7378 39.2045 55.806 39.1373L59.578 35.3667C59.8338 35.1018 59.8265 34.6798 59.5617 34.424C59.3033 34.1745 58.8937 34.1745 58.6353 34.424L55.9707 37.0867C55.4944 27.5308 47.615 20.0234 38.0473 20.0093C38.0307 20.0087 38.0167 20 38 20C37.9833 20 37.9693 20.0087 37.9527 20.0093C28.0485 20.0229 20.0229 28.0485 20.0093 37.9527C20.0093 37.9693 20 37.9833 20 38C20 38.0167 20.0087 38.0307 20.0093 38.0473C20.0259 47.7071 27.6709 55.6282 37.324 55.9873H37.3487C37.7069 55.9872 38.0011 55.704 38.0147 55.346Z" fill="white"/>
<path d="M46.957 29.0433C46.6967 28.7831 46.2747 28.7831 46.0144 29.0433L38.8504 36.2067C38.3091 35.9653 37.6909 35.9653 37.1497 36.2067L33.7577 32.8147C33.4929 32.5589 33.0708 32.5662 32.8151 32.8311C32.5656 33.0894 32.5656 33.499 32.8151 33.7573L36.2004 37.1427C35.7251 38.1377 36.1464 39.3297 37.1415 39.8049C37.9052 40.1697 38.816 40.0133 39.4144 39.4147C40.016 38.8182 40.1709 37.9048 39.7997 37.1433L46.957 29.986C47.2173 29.7257 47.2173 29.3037 46.957 29.0433ZM38.4719 38.4712C38.4718 38.4712 38.4718 38.4712 38.4717 38.4713C38.208 38.7234 37.7927 38.7234 37.529 38.4713C37.2686 38.211 37.2686 37.7889 37.5289 37.5285C37.7892 37.2681 38.2113 37.2681 38.4717 37.5283C38.7321 37.7887 38.7321 38.2108 38.4719 38.4712Z" fill="white"/>
</g>
<defs>
<clipPath id="clip0">
<rect x="20" y="20" width="40" height="40" fill="white"/>
</clipPath>
</defs>
</svg>
