<svg width="80" height="80" viewBox="0 0 80 80" fill="none" xmlns="http://www.w3.org/2000/svg">
<circle cx="40" cy="40" r="40" fill="#142B68"/>
<g clip-path="url(#clip0)">
<path fill-rule="evenodd" clip-rule="evenodd" d="M38.3939 20.0003C34.1442 20.0003 30.6881 23.4936 30.6881 27.7893C30.6881 31.0514 32.6837 33.8466 35.504 35.0046L35.5001 33.8817C33.2544 32.7921 31.7039 30.48 31.7039 27.7891C31.7039 24.0483 34.6931 21.0268 38.394 21.0268C42.0949 21.0268 45.0841 24.0483 45.0841 27.7891C45.0841 30.4935 43.5179 32.8152 41.2539 33.8977V35.0159C44.0901 33.8653 46.0999 31.0629 46.0999 27.789C46.0999 23.4935 42.644 20 38.3941 20L38.3939 20.0003ZM38.3867 27.3955C37.0577 27.3955 35.9406 28.4398 35.9443 29.756L35.984 43.4483L31.7165 39.3489C31.2948 38.9439 30.7495 38.738 30.2112 38.7385C29.673 38.739 29.1418 38.9459 28.7472 39.3657L28.5187 39.6087C28.1228 40.0299 27.9637 40.5863 28.0069 41.1086C28.05 41.6309 28.2719 42.1271 28.6044 42.5531L35.7259 51.6793C35.7293 51.6838 35.7531 51.716 35.7854 51.7643C35.8199 51.8158 35.8578 51.8954 35.8442 51.8581C35.8382 51.8419 35.8656 51.9596 35.8759 52.049C35.8851 52.1291 35.8886 52.1805 35.8894 52.1934V53.7615H34.7031C34.3001 53.7615 33.9845 54.0251 33.8041 54.3197C33.6236 54.6144 33.5351 54.9689 33.5351 55.3528V58.4087C33.5351 58.7926 33.6236 59.1471 33.8041 59.4417C33.9845 59.7364 34.3001 60 34.7031 60H51.2222C51.6252 60 51.9408 59.7364 52.1212 59.4417C52.3017 59.1471 52.3902 58.7926 52.3902 58.4087V55.3528C52.3902 54.9689 52.3017 54.6143 52.1212 54.3197C51.9408 54.0251 51.6252 53.7615 51.2222 53.7615H50.1113C50.0937 53.3416 50.054 52.2599 50.1502 51.725C50.221 51.3308 50.2755 51.2754 50.4271 50.9727C50.5787 50.67 50.7871 50.2018 51.0476 49.2274C51.3502 48.0955 51.3873 45.8185 51.392 43.7085C51.3966 41.5983 51.3372 39.7294 51.3372 39.7294C51.4147 38.4168 50.3066 37.3745 49.0615 37.3745C48.4887 37.3745 47.9686 37.5973 47.5697 37.96C47.2057 37.168 46.4456 36.6093 45.5494 36.6093C44.984 36.6093 44.4728 36.8321 44.0806 37.1948C43.7154 36.4074 42.9583 35.8529 42.0651 35.8529C41.606 35.8529 41.1829 36 40.8297 36.2491V29.7549C40.8297 28.4405 39.7155 27.3961 38.3865 27.3961L38.3867 27.3955ZM38.3867 28.4221C39.2013 28.4221 39.8142 29.0238 39.8142 29.7544V40.9248C39.8134 40.9927 39.8259 41.0602 39.851 41.1232C39.8762 41.1863 39.9135 41.2436 39.9607 41.292C40.0079 41.3403 40.0642 41.3787 40.1262 41.4049C40.1883 41.4311 40.2549 41.4446 40.3221 41.4446C40.3893 41.4446 40.4559 41.4311 40.5179 41.4049C40.58 41.3787 40.6362 41.3403 40.6835 41.292C40.7307 41.2436 40.768 41.1863 40.7931 41.1232C40.8183 41.0602 40.8308 40.9927 40.8299 40.9248V38.2523C40.8299 37.4642 41.3916 36.8791 42.0654 36.8791C42.7393 36.8791 43.3001 37.4642 43.3001 38.2523V38.9204C43.3 38.9349 43.3006 38.9493 43.3017 38.9637C43.3014 38.9791 43.2993 38.994 43.2993 39.0095V41.6691C43.2984 41.7371 43.311 41.8046 43.3361 41.8676C43.3612 41.9306 43.3985 41.988 43.4457 42.0363C43.493 42.0847 43.5493 42.1231 43.6113 42.1493C43.6733 42.1755 43.7399 42.189 43.8071 42.189C43.8744 42.189 43.9409 42.1755 44.003 42.1493C44.065 42.1231 44.1213 42.0847 44.1685 42.0363C44.2158 41.988 44.253 41.9306 44.2782 41.8676C44.3033 41.8046 44.3158 41.7371 44.315 41.6691V39.0095C44.315 38.2214 44.8758 37.6355 45.5497 37.6355C46.2235 37.6355 46.7852 38.2214 46.7852 39.0095V39.7081C46.7853 39.7156 46.7855 39.7231 46.786 39.7305C46.7859 39.7354 46.7852 39.7401 46.7852 39.745V42.3629C46.7843 42.4309 46.7968 42.4983 46.822 42.5614C46.8471 42.6244 46.8844 42.6818 46.9316 42.7301C46.9789 42.7785 47.0351 42.8169 47.0972 42.8431C47.1592 42.8693 47.2258 42.8828 47.293 42.8828C47.3602 42.8828 47.4268 42.8693 47.4888 42.8431C47.5509 42.8169 47.6072 42.7785 47.6544 42.7301C47.7016 42.6818 47.7389 42.6244 47.7641 42.5614C47.7892 42.4983 47.8017 42.4309 47.8009 42.3629V39.745C47.8009 38.9811 48.3652 38.4007 49.0617 38.4007C49.7567 38.4007 50.3856 38.9931 50.3242 39.7001C50.3225 39.7204 50.3219 39.7407 50.3226 39.761C50.3226 39.761 50.3812 41.617 50.3765 43.7064C50.3719 45.7958 50.2729 48.1925 50.0679 48.9592C49.8208 49.8834 49.6559 50.239 49.5212 50.508C49.3864 50.7771 49.241 51.0421 49.1514 51.5411C49.0274 52.231 49.0568 53.2225 49.0847 53.7612H36.9055V52.1811C36.9055 52.1712 36.9052 52.1613 36.9046 52.1514C36.9046 52.1514 36.8995 52.0524 36.8856 51.9308C36.8717 51.8093 36.8608 51.6758 36.7967 51.5009C36.7402 51.3467 36.6801 51.2672 36.6277 51.1889C36.5753 51.1106 36.5285 51.0494 36.5285 51.0494C36.527 51.0475 36.5254 51.0456 36.5238 51.0437L29.4022 41.9176C29.1743 41.6255 29.0419 41.2998 29.0189 41.0225C28.996 40.7452 29.0591 40.5238 29.2546 40.3159L29.4839 40.0728C29.8774 39.6543 30.5484 39.6429 31.017 40.0929L35.5749 44.4697C35.5985 44.5105 35.6212 44.5521 35.6591 44.5997C35.7624 44.7294 35.981 44.9294 36.3058 44.9133C36.4773 44.9048 36.628 44.8117 36.7104 44.7264C36.7929 44.641 36.8325 44.5624 36.8628 44.493C36.9234 44.354 36.945 44.2359 36.9628 44.1248C36.9984 43.9026 37.0001 43.703 37.0001 43.703C37.0004 43.6992 37.0007 43.6955 37.0009 43.6917L36.9604 29.7526C36.9583 29.0238 37.5725 28.422 38.3871 28.422L38.3867 28.4221ZM34.7033 54.7879H51.2224C51.1851 54.7879 51.1999 54.765 51.2581 54.86C51.3163 54.9551 51.3747 55.1392 51.3747 55.3525V58.4084C51.3747 58.6217 51.3163 58.8058 51.2581 58.9009C51.1999 58.9959 51.1851 58.9731 51.2224 58.9731H34.7033C34.7406 58.9731 34.7266 58.9959 34.6684 58.9009C34.6101 58.8058 34.5509 58.6217 34.5509 58.4084V55.3525C34.5509 55.1392 34.6101 54.9551 34.6684 54.86C34.7266 54.765 34.7405 54.7879 34.7033 54.7879Z" fill="white"/>
</g>
<defs>
<clipPath id="clip0">
<rect x="20" y="17" width="40" height="40" fill="white"/>
</clipPath>
</defs>
</svg>
