<svg width="80" height="80" viewBox="0 0 80 80" fill="none" xmlns="http://www.w3.org/2000/svg">
<g clip-path="url(#clip0)">
<ellipse cx="39.8781" cy="40.4997" rx="38.3512" ry="38.4489" fill="#142B68"/>
<path d="M49.277 41.1019C48.6686 40.3273 47.7528 39.7979 46.5292 39.5129C48.0841 38.7172 48.7654 37.376 48.5731 35.4894C48.5086 34.8048 48.3167 34.2131 47.9968 33.712C47.6755 33.2102 47.245 32.8079 46.7001 32.5041C46.1553 32.2004 45.5643 31.9708 44.926 31.8123C44.2881 31.6548 43.5561 31.5416 42.7304 31.4736L42.7205 27.5529L40.3065 27.5644L40.316 31.376C39.8973 31.3785 39.2602 31.3917 38.4025 31.4161L38.394 27.5741L35.979 27.5858L35.9886 31.5055C35.6434 31.517 35.1365 31.5249 34.4676 31.5282L31.1442 31.5283L31.1499 34.0796L32.8903 34.0715C33.6849 34.0677 34.1505 34.4186 34.2889 35.1225L34.2995 39.5871C34.4042 39.5865 34.4872 39.5918 34.5503 39.6013L34.299 39.6024L34.3147 45.8558C34.2322 46.3852 33.9304 46.6511 33.4071 46.6542L31.6666 46.6623L31.1878 49.5107L34.3233 49.4968C34.522 49.4949 34.8102 49.4966 35.1862 49.4999C35.5622 49.5032 35.8444 49.5043 36.0327 49.5029L36.0425 53.4702L38.4576 53.4584L38.4479 49.5388C38.887 49.547 39.5247 49.5488 40.3612 49.5451L40.3703 53.4498L42.7843 53.4383L42.7745 49.4711C43.6324 49.4256 44.3922 49.3453 45.0557 49.2273C45.7191 49.1092 46.3538 48.9281 46.9588 48.6807C47.5642 48.4344 48.0708 48.1289 48.4773 47.7636C48.8841 47.3993 49.2197 46.9358 49.4856 46.374C49.7507 45.8135 49.9194 45.1641 49.99 44.4277C50.1233 42.9859 49.8843 41.8769 49.277 41.1019ZM38.4568 34.2158C38.5301 34.2156 38.7364 34.2116 39.0759 34.2051C39.4163 34.1973 39.6978 34.1915 39.9231 34.1847C40.1476 34.1793 40.4512 34.1907 40.8329 34.2193C41.2138 34.2492 41.5357 34.2893 41.7972 34.3389C42.058 34.3899 42.3464 34.4741 42.6603 34.592C42.9742 34.7099 43.2253 34.8542 43.4134 35.0238C43.6018 35.1945 43.7619 35.4113 43.893 35.6755C44.0248 35.9383 44.0909 36.2423 44.0915 36.5839C44.0922 36.8744 44.0463 37.1391 43.9528 37.3785C43.859 37.6168 43.7178 37.818 43.5309 37.9794C43.343 38.141 43.1494 38.2822 42.9514 38.4024C42.7533 38.5226 42.5 38.6195 42.1915 38.6932C41.8833 38.7679 41.6148 38.8259 41.3852 38.8687C41.1554 38.9104 40.8679 38.9411 40.5231 38.9583C40.1783 38.9756 39.9168 38.9864 39.7392 38.9929C39.5612 38.9984 39.3181 38.9995 39.0097 38.9964C38.7013 38.9932 38.5214 38.9911 38.4691 38.9915L38.4568 34.2158ZM45.0759 44.7775C44.9766 45.0173 44.8501 45.225 44.6932 45.4026C44.5371 45.5788 44.3302 45.7352 44.0747 45.8711C43.8194 46.008 43.5718 46.1174 43.3314 46.2015C43.0909 46.2856 42.8012 46.3599 42.462 46.4233C42.1216 46.487 41.8243 46.5332 41.5683 46.5599C41.3123 46.5867 41.0063 46.6096 40.6508 46.6262C40.2957 46.6439 40.0186 46.6532 39.8196 46.6539C39.6217 46.6544 39.3709 46.653 39.0672 46.6498C38.7645 46.6462 38.5706 46.6444 38.487 46.6451L38.4744 41.3871C38.558 41.3863 38.8057 41.3805 39.2193 41.3678C39.6318 41.3553 39.9689 41.3483 40.2306 41.3468C40.4914 41.3466 40.8526 41.3598 41.3125 41.389C41.7722 41.4172 42.1593 41.4617 42.4729 41.5227C42.7865 41.5837 43.1288 41.6776 43.5004 41.8065C43.8717 41.9343 44.1727 42.0906 44.4036 42.2765C44.6346 42.4623 44.828 42.6991 44.9857 42.9886C45.1434 43.2781 45.2218 43.6101 45.2227 43.983C45.2237 44.2745 45.1754 44.5388 45.0759 44.7775Z" fill="white"/>
<path d="M18.1834 61.7493C17.9076 61.7493 17.684 61.9735 17.684 62.25V66.7557C17.684 67.0322 17.9076 67.2563 18.1834 67.2563C18.4592 67.2563 18.6828 67.0322 18.6828 66.7557L18.6828 62.7506L22.6777 62.7506C22.9535 62.7506 23.177 62.5265 23.177 62.25C23.177 61.9735 22.9535 61.7493 22.6777 61.7493L18.1834 61.7493ZM66.8897 24.8699C66.7517 24.6305 66.4462 24.5486 66.2075 24.687C65.9687 24.8254 65.887 25.1316 66.025 25.371L66.8897 24.8699ZM61.2197 61.896C49.433 73.7127 30.3231 73.7127 18.5365 61.896L17.8303 62.604C30.007 74.8117 49.7492 74.8117 61.9259 62.604L61.2197 61.896ZM66.025 25.371C72.6966 36.9429 71.0941 51.9964 61.2197 61.896L61.9259 62.604C72.128 52.3759 73.7819 36.8244 66.8897 24.8699L66.025 25.371Z" fill="white"/>
<path d="M61.5728 19.2506C61.8486 19.2506 62.0722 19.0265 62.0722 18.75V14.2443C62.0722 13.9678 61.8486 13.7436 61.5728 13.7436C61.297 13.7436 61.0734 13.9678 61.0734 14.2443V18.2494H57.0785C56.8028 18.2494 56.5792 18.4735 56.5792 18.75C56.5792 19.0265 56.8028 19.2506 57.0785 19.2506H61.5728ZM13.5701 57.291C13.7184 57.5241 14.0271 57.5925 14.2596 57.4438C14.4921 57.2951 14.5604 56.9856 14.4121 56.7525L13.5701 57.291ZM18.5365 19.104C30.3232 7.28732 49.4331 7.28732 61.2197 19.104L61.9259 18.396C49.7492 6.18829 30.007 6.18829 17.8303 18.396L18.5365 19.104ZM14.4121 56.7525C6.96379 45.0471 8.33922 29.3273 18.5365 19.104L17.8303 18.396C7.29469 28.9585 5.87521 45.1981 13.5701 57.291L14.4121 56.7525Z" fill="white"/>
</g>
<defs>
<clipPath id="clip0">
<rect width="80" height="80" fill="white"/>
</clipPath>
</defs>
</svg>
