<svg width="80" height="80" viewBox="0 0 80 80" fill="none" xmlns="http://www.w3.org/2000/svg">
<g clip-path="url(#clip0)">
<circle cx="39.972" cy="39.9997" r="39.7748" fill="#7B8295"/>
<path d="M17.472 62C17.1959 62 16.972 62.2238 16.972 62.5L16.972 67C16.972 67.2761 17.1959 67.5 17.472 67.5C17.7482 67.5 17.972 67.2761 17.972 67L17.972 63L21.972 63C22.2482 63 22.472 62.7761 22.472 62.5C22.472 62.2238 22.2482 62 21.972 62L17.472 62ZM67.9708 23.8399C67.8326 23.6008 67.5268 23.519 67.2877 23.6572C67.0486 23.7954 66.9668 24.1012 67.105 24.3403L67.9708 23.8399ZM62.1185 62.1464C49.8873 74.3776 30.0567 74.3776 17.8256 62.1464L17.1185 62.8535C29.7401 75.4752 50.2039 75.4752 62.8256 62.8535L62.1185 62.1464ZM67.105 24.3403C74.0282 36.3181 72.3652 51.8996 62.1185 62.1464L62.8256 62.8535C73.4005 52.2786 75.1148 36.1998 67.9708 23.8399L67.105 24.3403Z" fill="white"/>
<path d="M62.472 18C62.7482 18 62.972 17.7761 62.972 17.5L62.972 13C62.972 12.7239 62.7482 12.5 62.472 12.5C62.1959 12.5 61.972 12.7239 61.972 13L61.972 17L57.972 17C57.6959 17 57.472 17.2239 57.472 17.5C57.472 17.7761 57.6959 18 57.972 18L62.472 18ZM12.7025 57.3604C12.851 57.5932 13.1602 57.6615 13.393 57.513C13.6258 57.3645 13.6941 57.0554 13.5456 56.8226L12.7025 57.3604ZM17.8256 17.8536C30.0567 5.62241 49.8873 5.62241 62.1185 17.8536L62.8256 17.1464C50.2039 4.52478 29.7402 4.52478 17.1185 17.1464L17.8256 17.8536ZM13.5456 56.8226C5.81644 44.7066 7.24371 28.4354 17.8256 17.8536L17.1185 17.1464C6.19785 28.0671 4.72647 44.8574 12.7025 57.3604L13.5456 56.8226Z" fill="white"/>
<path d="M34.6677 33.3039C34.6677 34.3572 34.2677 35.2506 33.4677 35.9839C32.6811 36.7172 31.5344 37.1439 30.0277 37.2639V39.5239H28.7477V37.2639C27.7744 37.2106 26.8477 37.0306 25.9677 36.7239C25.1011 36.4039 24.4077 36.0039 23.8877 35.5239L24.6277 33.9639C25.1077 34.4039 25.7144 34.7706 26.4477 35.0639C27.1811 35.3439 27.9477 35.5106 28.7477 35.5639V30.9239C27.8144 30.6972 27.0344 30.4506 26.4077 30.1839C25.7944 29.9172 25.2744 29.5239 24.8477 29.0039C24.4344 28.4839 24.2277 27.8039 24.2277 26.9639C24.2277 25.9106 24.6077 25.0172 25.3677 24.2839C26.1411 23.5506 27.2677 23.1239 28.7477 23.0039V20.7239H30.0277V22.9839C30.7877 23.0106 31.5211 23.1306 32.2277 23.3439C32.9477 23.5572 33.5677 23.8439 34.0877 24.2039L33.4277 25.8039C32.3477 25.1239 31.2144 24.7506 30.0277 24.6839V29.3439C31.0011 29.5839 31.8011 29.8372 32.4277 30.1039C33.0544 30.3572 33.5811 30.7439 34.0078 31.2639C34.4477 31.7706 34.6677 32.4506 34.6677 33.3039ZM26.1877 26.8839C26.1877 27.4572 26.4077 27.9039 26.8477 28.2239C27.2877 28.5439 27.9211 28.8106 28.7477 29.0239V24.7039C27.8944 24.8106 27.2544 25.0639 26.8277 25.4639C26.4011 25.8506 26.1877 26.3239 26.1877 26.8839ZM30.0277 35.5439C30.9211 35.4639 31.5877 35.2372 32.0277 34.8639C32.4811 34.4772 32.7077 33.9972 32.7077 33.4239C32.7077 32.8372 32.4744 32.3906 32.0077 32.0839C31.5544 31.7639 30.8944 31.4839 30.0277 31.2439V35.5439Z" fill="white"/>
<path d="M52.1008 56.3857C53.6741 56.3857 54.9941 55.8257 56.0608 54.7057L57.3408 55.9657C56.7141 56.6857 55.9408 57.2324 55.0208 57.6057C54.1008 57.9791 53.0941 58.1657 52.0008 58.1657C50.8408 58.1657 49.7675 57.9524 48.7808 57.5257C47.7941 57.0857 46.9608 56.4724 46.2808 55.6857C45.6008 54.8991 45.1208 53.9857 44.8408 52.9457H42.5608V51.8257H44.6408C44.6141 51.4791 44.6008 51.2057 44.6008 51.0057C44.6008 50.8057 44.6141 50.5324 44.6408 50.1857H42.5608V49.0657H44.8408C45.1208 48.0257 45.6008 47.1124 46.2808 46.3257C46.9608 45.5391 47.7941 44.9324 48.7808 44.5057C49.7675 44.0657 50.8408 43.8457 52.0008 43.8457C53.1075 43.8457 54.1141 44.0324 55.0208 44.4057C55.9408 44.7791 56.7141 45.3191 57.3408 46.0257L56.0608 47.2857C55.0075 46.1791 53.6875 45.6257 52.1008 45.6257C50.8875 45.6257 49.8208 45.9391 48.9008 46.5657C47.9808 47.1924 47.3341 48.0257 46.9608 49.0657H53.3008V50.1857H46.6808C46.6408 50.4391 46.6208 50.7124 46.6208 51.0057C46.6208 51.2857 46.6408 51.5591 46.6808 51.8257H53.3008V52.9457H46.9608C47.3341 53.9857 47.9808 54.8191 48.9008 55.4457C49.8208 56.0724 50.8875 56.3857 52.1008 56.3857Z" fill="white"/>
</g>
<defs>
<clipPath id="clip0">
<rect width="80" height="80" fill="white"/>
</clipPath>
</defs>
</svg>
