<svg width="80" height="81" viewBox="0 0 80 81" fill="none" xmlns="http://www.w3.org/2000/svg">
<circle cx="40" cy="40.7671" r="40" fill="#41C87F"/>
<path d="M32.5781 53.165C32.5975 53.167 32.6159 53.1691 32.6354 53.1691H38.5688C38.5902 53.1691 38.6107 53.167 38.6321 53.164C39.5691 53.0925 40.3068 52.6306 40.7206 51.897C41.4625 52.7205 42.2717 53.1681 43.0605 53.1681C43.6552 53.1681 43.977 53.072 44.2621 52.9872C44.5114 52.9136 44.726 52.8493 45.147 52.8493C45.5679 52.8493 45.7835 52.9136 46.0328 52.9872C46.3169 53.072 46.6408 53.1681 47.2345 53.1681C48.2583 53.1681 49.3168 52.4222 50.216 51.0653C51.5361 49.0759 52.4332 45.7602 51.4942 43.5368C50.7912 41.8693 49.1053 40.9977 47.8046 40.9977C47.0178 40.9977 46.555 41.1765 46.1473 41.3349C45.9327 41.4177 45.7478 41.4892 45.5322 41.529C45.4126 40.4245 44.8425 39.4446 43.9852 38.9051C43.7962 38.7835 43.5418 38.8408 43.4212 39.0329C43.3016 39.2239 43.3578 39.4763 43.5499 39.5969C44.1712 39.9892 44.5932 40.7014 44.7076 41.5188C44.5155 41.4769 44.3439 41.4115 44.1477 41.3349C43.739 41.1765 43.2751 40.9977 42.4893 40.9977C42.051 40.9977 41.5697 41.105 41.0967 41.3002V39.9238C41.0967 39.9157 41.0926 39.9085 41.0915 39.9003L41.0926 38.7631C41.0936 37.9988 40.9138 37.302 40.5449 36.6317C40.3538 36.2873 40.1699 35.9399 39.9839 35.5925C39.6876 35.0387 39.3923 34.4839 39.0776 33.9393C38.8089 33.4754 38.6986 33.033 38.7098 32.5497C39.4322 32.2575 39.9175 31.5157 39.9175 30.7023C39.9175 29.5906 39.3086 28.8887 38.2878 28.7896C38.2439 28.7753 38.1979 28.7671 38.1529 28.7671L32.9562 28.7763C31.8956 28.8887 31.2876 29.5906 31.2876 30.7023C31.2876 31.5157 31.773 32.2575 32.4739 32.5497C32.5056 33.032 32.3952 33.4744 32.1265 33.9393C31.8118 34.4839 31.5165 35.0387 31.2202 35.5936C31.0342 35.941 30.8503 36.2884 30.6603 36.6327C30.2904 37.3009 30.1105 37.9988 30.1116 38.7641C30.1126 39.1442 30.1116 39.5243 30.1116 39.9044C30.1116 39.9116 30.1075 39.9167 30.1075 39.9238V46.8106C30.1075 46.8157 30.1105 46.8208 30.1105 46.8259L30.1075 50.2979C30.1075 52.7716 31.9763 53.117 32.5781 53.165ZM40.2721 41.7518C39.6621 42.1748 39.1236 42.7674 38.7977 43.5379C38.4431 44.3798 38.3522 45.3791 38.4462 46.4029H30.929V45.9247C30.931 44.061 30.931 42.1973 30.93 40.3336H40.2731L40.2721 41.7518ZM38.5688 52.3486C38.5627 52.3496 38.5555 52.3506 38.5473 52.3506H32.6548C32.6466 52.3496 32.6394 52.3496 32.6333 52.3486C31.9947 52.2996 30.9249 51.9685 30.9249 50.2989L30.9269 47.2193H38.5647C38.8232 48.6345 39.3883 50.0312 40.0769 51.0683C40.0994 51.1031 40.1239 51.1317 40.1464 51.1654C39.8429 52.1003 39.0398 52.3128 38.5688 52.3486ZM43.8514 42.0982C44.212 42.2371 44.584 42.3812 45.1459 42.3812C45.7079 42.3812 46.0809 42.2371 46.4416 42.0982C46.8155 41.9531 47.1701 41.8162 47.8036 41.8162C48.8356 41.8162 50.1761 42.5171 50.7412 43.8566C51.5382 45.7469 50.7545 48.7775 49.5345 50.6157C48.8019 51.7192 47.964 52.3517 47.2334 52.3517C46.7583 52.3517 46.5294 52.2842 46.2648 52.2056C45.993 52.1248 45.6865 52.0329 45.1459 52.0329C44.6054 52.0329 44.2989 52.1248 44.0281 52.2056C43.7625 52.2832 43.5346 52.3517 43.0595 52.3517C42.3289 52.3517 41.4911 51.7202 40.7595 50.6177C39.5395 48.7796 38.7537 45.7479 39.5497 43.8566C39.8317 43.1884 40.3078 42.6796 40.8412 42.3362C40.8484 42.3332 40.8535 42.3281 40.8606 42.325C41.3909 41.9888 41.9774 41.8162 42.4883 41.8162C43.1228 41.8151 43.4764 41.9531 43.8514 42.0982ZM33.042 29.5896C33.0502 29.5886 33.0635 29.5876 33.0768 29.5845H38.1253C38.1396 29.5866 38.1519 29.5886 38.1601 29.5896C38.5627 29.6325 39.097 29.794 39.097 30.7023C39.097 31.158 38.8436 31.5657 38.4676 31.7517H32.7355C32.3585 31.5657 32.1051 31.1591 32.1051 30.7023C32.1051 29.794 32.6405 29.6325 33.042 29.5896ZM31.3755 37.0261C31.5676 36.6787 31.7536 36.3282 31.9416 35.9777C32.2328 35.4311 32.524 34.8844 32.8346 34.348C33.1687 33.7677 33.3138 33.1842 33.2893 32.5691H37.9149C37.8893 33.1863 38.0344 33.7697 38.3685 34.349C38.6791 34.8855 38.9703 35.4321 39.2616 35.9788C39.4496 36.3292 39.6355 36.6797 39.8276 37.0271C40.129 37.5738 40.2752 38.1419 40.2741 38.7631V39.5161H30.93C30.93 39.2648 30.931 39.0145 30.93 38.7631C30.929 38.1398 31.0751 37.5717 31.3755 37.0261Z" fill="white"/>
<path d="M35.6018 45.469C36.4785 45.469 37.1927 44.7558 37.1927 43.8791C37.1927 43.1454 36.224 41.8171 35.9277 41.4289C35.7724 41.2255 35.4332 41.2255 35.2769 41.4289C34.9805 41.8182 34.0119 43.1465 34.0119 43.8791C34.0119 44.7558 34.7251 45.469 35.6018 45.469ZM35.6018 42.375C36.0146 42.9789 36.3742 43.6277 36.3742 43.8791C36.3742 44.3052 36.0279 44.6515 35.6018 44.6515C35.1757 44.6515 34.8293 44.3052 34.8293 43.8791C34.8293 43.6267 35.189 42.9789 35.6018 42.375Z" fill="white"/>
<circle cx="40" cy="40.7676" r="32" stroke="white" stroke-linecap="round" stroke-dasharray="6 6"/>
</svg>
