<svg width="80" height="81" viewBox="0 0 80 81" fill="none" xmlns="http://www.w3.org/2000/svg">
<circle cx="39.9998" cy="40.7656" r="40" fill="black"/>
<path d="M53.3716 34.0605H48.3001C47.9788 34.0605 47.718 33.7997 47.718 33.4784C47.718 33.3949 47.7358 33.3151 47.7675 33.2432V29.9395C47.7675 28.2168 49.1552 26.8154 50.8605 26.8154C52.566 26.8154 53.9537 28.2168 53.9537 29.9395V33.4784C53.9537 33.8 53.6929 34.0605 53.3716 34.0605ZM48.9317 32.8963H52.7895V29.9395C52.7895 28.8589 51.924 27.9796 50.8605 27.9796C49.797 27.9796 48.9317 28.8589 48.9317 29.9395V32.8963Z" fill="white"/>
<path d="M45.0014 53.9981H44.7552C44.0346 53.9981 42.9894 53.9067 42.2356 53.1157C41.51 52.3543 41.1768 51.1065 41.2003 49.2156L29.0014 49.2631C29.0008 49.2631 28.9999 49.2631 28.999 49.2631C28.8448 49.2631 28.6969 49.2019 28.5878 49.0928C28.4781 48.9834 28.4166 48.8343 28.4169 48.6795L28.4661 28.8166C28.4661 27.6862 29.3788 26.7656 30.5008 26.7656H50.8113C51.1326 26.7656 51.3934 27.0264 51.3934 27.3477C51.3934 27.669 51.1326 27.9298 50.8113 27.9298C49.7478 27.9298 48.8823 28.8091 48.8823 29.8894V50.0765C48.8823 52.2387 47.1415 53.9981 45.0014 53.9981ZM41.8011 48.0491C41.96 48.0491 42.1119 48.114 42.2216 48.2287C42.3319 48.3439 42.3901 48.4999 42.3823 48.6591C42.2932 50.5052 42.5275 51.734 43.0785 52.3124C43.4269 52.6779 43.9283 52.8339 44.7552 52.8339H45.0014C46.4992 52.8339 47.7181 51.597 47.7181 50.0762V29.8894C47.7181 29.1479 47.9751 28.4659 48.4041 27.9298H30.5008C30.0209 27.9298 29.6303 28.3283 29.6303 28.8181L29.5829 48.0965L41.7987 48.0491C41.7993 48.0491 41.8002 48.0491 41.8011 48.0491Z" fill="white"/>
<path d="M45.2968 54.0481H30.5256C29.1731 54.0167 28.0976 53.5685 27.3159 52.7157C25.8665 51.135 25.9992 48.7452 26.0056 48.6445C26.0248 48.3377 26.2792 48.0991 26.5865 48.0991H29.5406L41.7984 48.0493C41.7993 48.0493 41.8002 48.0493 41.8008 48.0493C42.1212 48.0493 42.3817 48.3083 42.3829 48.6291C42.384 48.9504 42.1247 49.2121 41.8031 49.2135L29.543 49.2633H27.1794C27.2277 49.9435 27.425 51.1158 28.1783 51.9336C28.7374 52.5408 29.5319 52.8606 30.5392 52.8845L44.3227 52.8842C44.4138 52.8435 44.5171 52.826 44.6236 52.8382C44.8978 52.8691 45.1181 52.8842 45.2968 52.8842C45.6181 52.8842 45.8789 53.145 45.8789 53.4663C45.8789 53.7876 45.6181 54.0481 45.2968 54.0481Z" fill="white"/>
<path d="M44.4106 39.2443H32.5934C32.2721 39.2443 32.0114 38.9835 32.0114 38.6622C32.0114 38.3409 32.2721 38.0801 32.5934 38.0801H44.4106C44.7319 38.0801 44.9927 38.3409 44.9927 38.6622C44.9927 38.9835 44.7319 39.2443 44.4106 39.2443Z" fill="white"/>
<path d="M44.4106 34.2599H32.5934C32.2721 34.2599 32.0114 33.9991 32.0114 33.6778C32.0114 33.3565 32.2721 33.0957 32.5934 33.0957H44.4106C44.7319 33.0957 44.9927 33.3565 44.9927 33.6778C44.9927 33.9991 44.7319 34.2599 44.4106 34.2599Z" fill="white"/>
<path d="M44.4106 44.2289H32.5934C32.2721 44.2289 32.0114 43.9681 32.0114 43.6468C32.0114 43.3255 32.2721 43.0647 32.5934 43.0647H44.4106C44.7319 43.0647 44.9927 43.3255 44.9927 43.6468C44.9927 43.9681 44.7319 44.2289 44.4106 44.2289Z" fill="white"/>
<circle cx="39.9998" cy="40.7661" r="32" stroke="white" stroke-linecap="round" stroke-dasharray="6 6"/>
</svg>
