<svg width="560" height="249" viewBox="0 0 560 249" fill="none" xmlns="http://www.w3.org/2000/svg">
<g clip-path="url(#clip0)">
<g clip-path="url(#clip1)">
<path d="M329.5 190C329.5 212.844 323.921 233.502 314.927 248.432C305.927 263.371 293.563 272.5 280 272.5C266.437 272.5 254.073 263.371 245.073 248.432C236.079 233.502 230.5 212.844 230.5 190C230.5 167.156 236.079 146.498 245.073 131.568C254.073 116.629 266.437 107.5 280 107.5C293.563 107.5 305.927 116.629 314.927 131.568C323.921 146.498 329.5 167.156 329.5 190Z" stroke="#E2E2E2"/>
</g>
<g clip-path="url(#clip2)">
<path d="M429 175.5C429 202.19 411.598 226.428 383.841 244.021C356.092 261.608 318.063 272.5 277 272.5C235.938 272.5 198.786 261.608 171.915 244.025C145.039 226.438 128.5 202.2 128.5 175.5C128.5 148.8 145.039 124.562 171.915 106.975C198.786 89.392 235.938 78.5 277 78.5C318.063 78.5 356.092 89.3923 383.841 106.979C411.598 124.572 429 148.81 429 175.5Z" stroke="#E2E2E2"/>
</g>
<path d="M528 184C528 103.919 417.19 39 280.5 39C143.81 39 33 103.919 33 184" stroke="#E2E2E2"/>
<g filter="url(#filter0_d)">
<rect x="224" y="5" width="112" height="112" rx="12.4444" fill="#41C87F"/>
</g>
<g filter="url(#filter1_d)">
<rect x="231.622" y="12.6222" width="95.8222" height="95.8222" rx="11.8222" stroke="white" stroke-width="1.24444" stroke-dasharray="2.49 2.49"/>
</g>
<path d="M296.433 71.3316C296.433 74.5491 295.211 77.2778 292.767 79.5178C290.364 81.7578 286.862 83.0611 282.26 83.4276V90.3309H278.35V83.4276C275.377 83.2647 272.546 82.7149 269.858 81.7782C267.211 80.8007 265.093 79.5789 263.505 78.1127L265.765 73.3476C267.231 74.6916 269.084 75.8116 271.324 76.7076C273.564 77.5629 275.906 78.072 278.35 78.2349V64.0618C275.499 63.3695 273.116 62.616 271.202 61.8015C269.329 60.9869 267.74 59.7855 266.437 58.1971C265.175 56.6087 264.543 54.5316 264.543 51.9658C264.543 48.7484 265.704 46.0196 268.025 43.7796C270.388 41.5396 273.829 40.2364 278.35 39.8698V32.9055H282.26V39.8087C284.581 39.8902 286.821 40.2567 288.98 40.9084C291.179 41.56 293.073 42.4356 294.661 43.5353L292.645 48.4225C289.346 46.3455 285.884 45.2051 282.26 45.0015V59.2356C285.233 59.9687 287.676 60.7425 289.591 61.5571C291.505 62.3309 293.113 63.512 294.417 65.1004C295.761 66.648 296.433 68.7251 296.433 71.3316ZM270.53 51.7215C270.53 53.4727 271.202 54.8371 272.546 55.8145C273.89 56.792 275.825 57.6065 278.35 58.2582V45.0625C275.743 45.3884 273.788 46.1622 272.485 47.384C271.182 48.5651 270.53 50.0109 270.53 51.7215ZM282.26 78.1738C284.988 77.9295 287.025 77.2371 288.369 76.0967C289.753 74.9156 290.446 73.4495 290.446 71.6982C290.446 69.9062 289.733 68.5418 288.308 67.6051C286.923 66.6276 284.907 65.7724 282.26 65.0393V78.1738Z" fill="white"/>
<g filter="url(#filter2_d)">
<circle cx="131.5" cy="216.5" r="32.5" fill="#142B68"/>
</g>
<path d="M120.232 209.277C120.232 209.752 120.051 210.155 119.691 210.486C119.336 210.817 118.819 211.009 118.139 211.063V212.082H117.562V211.063C117.123 211.039 116.705 210.958 116.308 210.82C115.917 210.675 115.604 210.495 115.37 210.278L115.704 209.575C115.92 209.773 116.194 209.939 116.524 210.071C116.855 210.197 117.201 210.272 117.562 210.296V208.204C117.141 208.101 116.789 207.99 116.506 207.87C116.23 207.75 115.995 207.572 115.803 207.338C115.616 207.103 115.523 206.797 115.523 206.418C115.523 205.943 115.695 205.54 116.037 205.209C116.386 204.878 116.894 204.686 117.562 204.632V203.603H118.139V204.623C118.482 204.635 118.813 204.689 119.131 204.785C119.456 204.881 119.736 205.011 119.97 205.173L119.673 205.895C119.185 205.588 118.674 205.419 118.139 205.389V207.491C118.578 207.599 118.939 207.714 119.221 207.834C119.504 207.948 119.742 208.123 119.934 208.357C120.133 208.586 120.232 208.892 120.232 209.277ZM116.407 206.382C116.407 206.64 116.506 206.842 116.705 206.986C116.903 207.13 117.189 207.251 117.562 207.347V205.398C117.177 205.447 116.888 205.561 116.696 205.741C116.503 205.916 116.407 206.129 116.407 206.382ZM118.139 210.287C118.542 210.251 118.843 210.149 119.041 209.981C119.246 209.806 119.348 209.59 119.348 209.331C119.348 209.067 119.243 208.865 119.032 208.727C118.828 208.583 118.53 208.456 118.139 208.348V210.287Z" fill="white"/>
<path d="M145.573 210.269C146.283 210.269 146.878 210.017 147.359 209.512L147.937 210.08C147.654 210.405 147.305 210.651 146.89 210.82C146.475 210.988 146.021 211.072 145.528 211.072C145.005 211.072 144.521 210.976 144.076 210.784C143.631 210.585 143.255 210.309 142.948 209.954C142.642 209.599 142.425 209.187 142.299 208.718H141.271V208.213H142.209C142.197 208.057 142.191 207.933 142.191 207.843C142.191 207.753 142.197 207.63 142.209 207.473H141.271V206.968H142.299C142.425 206.499 142.642 206.087 142.948 205.732C143.255 205.377 143.631 205.104 144.076 204.911C144.521 204.713 145.005 204.614 145.528 204.614C146.027 204.614 146.481 204.698 146.89 204.866C147.305 205.035 147.654 205.278 147.937 205.597L147.359 206.165C146.884 205.666 146.289 205.417 145.573 205.417C145.026 205.417 144.545 205.558 144.13 205.841C143.715 206.123 143.423 206.499 143.255 206.968H146.114V207.473H143.129C143.111 207.587 143.102 207.711 143.102 207.843C143.102 207.969 143.111 208.093 143.129 208.213H146.114V208.718H143.255C143.423 209.187 143.715 209.563 144.13 209.846C144.545 210.128 145.026 210.269 145.573 210.269Z" fill="white"/>
<path d="M138.39 217.278L134.3 216.164V215.114C135.615 214.2 136.399 212.701 136.4 211.1V210.4C136.787 210.4 137.1 210.087 137.1 209.7V207.6C137.1 204.507 134.593 202 131.5 202C128.407 202 125.9 204.507 125.9 207.6V209.7C125.9 210.087 126.213 210.4 126.6 210.4V211.1C126.601 212.701 127.385 214.201 128.7 215.115V216.165L124.608 217.279C122.482 217.868 121.007 219.8 121 222.006V229.3C121 229.687 121.313 230 121.7 230H141.3C141.687 230 142 229.687 142 229.3V222.006C141.993 219.799 140.518 217.866 138.39 217.278V217.278ZM127.3 207.6C127.3 205.281 129.181 203.4 131.5 203.4C133.819 203.4 135.7 205.281 135.7 207.6V209H135.239C134.597 209 134.037 208.563 133.881 207.939L133.579 206.73C133.514 206.469 133.303 206.268 133.039 206.214C132.993 206.205 132.946 206.2 132.9 206.2C132.68 206.2 132.472 206.304 132.34 206.48L131.92 207.04C130.992 208.271 129.542 208.996 128 209H127.3V207.6ZM128 211.1V210.4C129.726 210.397 131.376 209.689 132.567 208.44C132.909 209.521 133.87 210.288 135 210.381V211.1C135 213.033 133.433 214.6 131.5 214.6C129.567 214.6 128 213.033 128 211.1ZM131.5 216C131.974 215.999 132.446 215.928 132.9 215.79V216.7C132.902 216.901 132.991 217.09 133.144 217.22L131.5 218.59L129.856 217.221C130.009 217.091 130.098 216.901 130.1 216.7V215.79C130.554 215.928 131.026 215.999 131.5 216ZM140.6 228.6H138.5V222.3H137.1V228.6H125.9V222.3H124.5V228.6H122.4V222.006C122.405 220.43 123.459 219.049 124.978 218.628L128.28 217.73L131.052 220.04C131.312 220.256 131.688 220.256 131.948 220.04L134.72 217.73L138.02 218.628C139.54 219.048 140.594 220.429 140.6 222.006V228.6Z" fill="white"/>
<circle opacity="0.5" cx="131.5" cy="216.5" r="28.5" stroke="white" stroke-linecap="round" stroke-dasharray="2 2"/>
<g filter="url(#filter3_d)">
<circle cx="32.5" cy="216.5" r="32.5" fill="#142B68"/>
</g>
<path d="M21.2318 210.277C21.2318 210.752 21.0514 211.155 20.6906 211.486C20.3358 211.817 19.8186 212.009 19.1391 212.063V213.082H18.5618V212.063C18.1228 212.039 17.7048 211.958 17.3079 211.82C16.9171 211.675 16.6044 211.495 16.3698 211.278L16.7036 210.575C16.9201 210.773 17.1937 210.939 17.5244 211.071C17.8552 211.197 18.201 211.272 18.5618 211.296V209.204C18.1408 209.101 17.789 208.99 17.5064 208.87C17.2298 208.75 16.9952 208.572 16.8028 208.338C16.6164 208.103 16.5232 207.797 16.5232 207.418C16.5232 206.943 16.6946 206.54 17.0373 206.209C17.3861 205.878 17.8943 205.686 18.5618 205.632V204.603H19.1391V205.623C19.4818 205.635 19.8126 205.689 20.1313 205.785C20.456 205.881 20.7357 206.011 20.9702 206.173L20.6725 206.895C20.1854 206.588 19.6743 206.419 19.1391 206.389V208.491C19.578 208.599 19.9389 208.714 20.2215 208.834C20.5041 208.948 20.7417 209.123 20.9341 209.357C21.1325 209.586 21.2318 209.892 21.2318 210.277ZM17.4072 207.382C17.4072 207.64 17.5064 207.842 17.7048 207.986C17.9033 208.13 18.1889 208.251 18.5618 208.347V206.398C18.1769 206.447 17.8882 206.561 17.6958 206.741C17.5034 206.916 17.4072 207.129 17.4072 207.382ZM19.1391 211.287C19.542 211.251 19.8426 211.149 20.0411 210.981C20.2456 210.806 20.3478 210.59 20.3478 210.331C20.3478 210.067 20.2425 209.865 20.0321 209.727C19.8276 209.583 19.5299 209.456 19.1391 209.348V211.287Z" fill="white"/>
<path d="M46.5732 211.269C47.2828 211.269 47.8781 211.017 48.3592 210.512L48.9365 211.08C48.6539 211.405 48.3051 211.651 47.8901 211.82C47.4752 211.988 47.0212 212.072 46.5281 212.072C46.0049 212.072 45.5208 211.976 45.0758 211.784C44.6308 211.585 44.255 211.309 43.9483 210.954C43.6416 210.599 43.4251 210.187 43.2988 209.718H42.2705V209.213H43.2086C43.1966 209.057 43.1906 208.933 43.1906 208.843C43.1906 208.753 43.1966 208.63 43.2086 208.473H42.2705V207.968H43.2988C43.4251 207.499 43.6416 207.087 43.9483 206.732C44.255 206.377 44.6308 206.104 45.0758 205.911C45.5208 205.713 46.0049 205.614 46.5281 205.614C47.0272 205.614 47.4812 205.698 47.8901 205.866C48.3051 206.035 48.6539 206.278 48.9365 206.597L48.3592 207.165C47.8841 206.666 47.2888 206.417 46.5732 206.417C46.026 206.417 45.5449 206.558 45.1299 206.841C44.715 207.123 44.4234 207.499 44.255 207.968H47.1144V208.473H44.1287C44.1106 208.587 44.1016 208.711 44.1016 208.843C44.1016 208.969 44.1106 209.093 44.1287 209.213H47.1144V209.718H44.255C44.4234 210.187 44.715 210.563 45.1299 210.846C45.5449 211.128 46.026 211.269 46.5732 211.269Z" fill="white"/>
<path d="M39.3899 218.278L35.3 217.164V216.114C36.6146 215.2 37.3986 213.701 37.4 212.1V211.4C37.7866 211.4 38.1 211.087 38.1 210.7V208.6C38.1 205.507 35.5929 203 32.5 203C29.4071 203 26.9 205.507 26.9 208.6V210.7C26.9 211.087 27.2134 211.4 27.6 211.4V212.1C27.601 213.701 28.3854 215.201 29.7 216.115V217.165L25.6077 218.279C23.4817 218.868 22.0072 220.8 22 223.006V230.3C22 230.687 22.3134 231 22.7 231H42.3C42.6866 231 43 230.687 43 230.3V223.006C42.9932 220.799 41.5176 218.866 39.3899 218.278V218.278ZM28.3 208.6C28.3 206.281 30.1806 204.4 32.5 204.4C34.8194 204.4 36.7 206.281 36.7 208.6V210H36.2393C35.597 210 35.0372 209.563 34.8813 208.939L34.5792 207.73C34.5135 207.469 34.3033 207.268 34.0388 207.214C33.993 207.205 33.9465 207.2 33.9 207.2C33.6795 207.2 33.4721 207.304 33.3401 207.48L32.9201 208.04C31.9921 209.271 30.5415 209.996 29 210H28.3V208.6ZM29 212.1V211.4C30.7261 211.397 32.3759 210.689 33.5674 209.44C33.9085 210.521 34.87 211.288 36 211.381V212.1C36 214.033 34.4329 215.6 32.5 215.6C30.5671 215.6 29 214.033 29 212.1ZM32.5 217C32.9744 216.999 33.4461 216.928 33.9 216.79V217.7C33.9024 217.901 33.9913 218.09 34.1444 218.22L32.5 219.59L30.8556 218.221C31.0087 218.091 31.0979 217.901 31.1 217.7V216.79C31.5539 216.928 32.0256 216.999 32.5 217ZM41.6 229.6H39.5V223.3H38.1V229.6H26.9V223.3H25.5V229.6H23.4V223.006C23.4051 221.43 24.4589 220.049 25.9782 219.628L29.2799 218.73L32.0519 221.04C32.3117 221.256 32.6883 221.256 32.9481 221.04L35.7201 218.73L39.0198 219.628C40.5397 220.048 41.5942 221.429 41.6 223.006V229.6Z" fill="white"/>
<circle opacity="0.5" cx="32.5" cy="216.5" r="28.5" stroke="white" stroke-linecap="round" stroke-dasharray="2 2"/>
<g filter="url(#filter4_d)">
<circle cx="230.5" cy="216.5" r="32.5" fill="#142B68"/>
</g>
<path d="M219.232 209.277C219.232 209.752 219.051 210.155 218.691 210.486C218.336 210.817 217.819 211.009 217.139 211.063V212.082H216.562V211.063C216.123 211.039 215.705 210.958 215.308 210.82C214.917 210.675 214.604 210.495 214.37 210.278L214.704 209.575C214.92 209.773 215.194 209.939 215.524 210.071C215.855 210.197 216.201 210.272 216.562 210.296V208.204C216.141 208.101 215.789 207.99 215.506 207.87C215.23 207.75 214.995 207.572 214.803 207.338C214.616 207.103 214.523 206.797 214.523 206.418C214.523 205.943 214.695 205.54 215.037 205.209C215.386 204.878 215.894 204.686 216.562 204.632V203.603H217.139V204.623C217.482 204.635 217.813 204.689 218.131 204.785C218.456 204.881 218.736 205.011 218.97 205.173L218.673 205.895C218.185 205.588 217.674 205.419 217.139 205.389V207.491C217.578 207.599 217.939 207.714 218.221 207.834C218.504 207.948 218.742 208.123 218.934 208.357C219.133 208.586 219.232 208.892 219.232 209.277ZM215.407 206.382C215.407 206.64 215.506 206.842 215.705 206.986C215.903 207.13 216.189 207.251 216.562 207.347V205.398C216.177 205.447 215.888 205.561 215.696 205.741C215.503 205.916 215.407 206.129 215.407 206.382ZM217.139 210.287C217.542 210.251 217.843 210.149 218.041 209.981C218.246 209.806 218.348 209.59 218.348 209.331C218.348 209.067 218.243 208.865 218.032 208.727C217.828 208.583 217.53 208.456 217.139 208.348V210.287Z" fill="white"/>
<path d="M244.573 210.269C245.283 210.269 245.878 210.017 246.359 209.512L246.937 210.08C246.654 210.405 246.305 210.651 245.89 210.82C245.475 210.988 245.021 211.072 244.528 211.072C244.005 211.072 243.521 210.976 243.076 210.784C242.631 210.585 242.255 210.309 241.948 209.954C241.642 209.599 241.425 209.187 241.299 208.718H240.271V208.213H241.209C241.197 208.057 241.191 207.933 241.191 207.843C241.191 207.753 241.197 207.63 241.209 207.473H240.271V206.968H241.299C241.425 206.499 241.642 206.087 241.948 205.732C242.255 205.377 242.631 205.104 243.076 204.911C243.521 204.713 244.005 204.614 244.528 204.614C245.027 204.614 245.481 204.698 245.89 204.866C246.305 205.035 246.654 205.278 246.937 205.597L246.359 206.165C245.884 205.666 245.289 205.417 244.573 205.417C244.026 205.417 243.545 205.558 243.13 205.841C242.715 206.123 242.423 206.499 242.255 206.968H245.114V207.473H242.129C242.111 207.587 242.102 207.711 242.102 207.843C242.102 207.969 242.111 208.093 242.129 208.213H245.114V208.718H242.255C242.423 209.187 242.715 209.563 243.13 209.846C243.545 210.128 244.026 210.269 244.573 210.269Z" fill="white"/>
<path d="M237.39 217.278L233.3 216.164V215.114C234.615 214.2 235.399 212.701 235.4 211.1V210.4C235.787 210.4 236.1 210.087 236.1 209.7V207.6C236.1 204.507 233.593 202 230.5 202C227.407 202 224.9 204.507 224.9 207.6V209.7C224.9 210.087 225.213 210.4 225.6 210.4V211.1C225.601 212.701 226.385 214.201 227.7 215.115V216.165L223.608 217.279C221.482 217.868 220.007 219.8 220 222.006V229.3C220 229.687 220.313 230 220.7 230H240.3C240.687 230 241 229.687 241 229.3V222.006C240.993 219.799 239.518 217.866 237.39 217.278V217.278ZM226.3 207.6C226.3 205.281 228.181 203.4 230.5 203.4C232.819 203.4 234.7 205.281 234.7 207.6V209H234.239C233.597 209 233.037 208.563 232.881 207.939L232.579 206.73C232.514 206.469 232.303 206.268 232.039 206.214C231.993 206.205 231.946 206.2 231.9 206.2C231.68 206.2 231.472 206.304 231.34 206.48L230.92 207.04C229.992 208.271 228.542 208.996 227 209H226.3V207.6ZM227 211.1V210.4C228.726 210.397 230.376 209.689 231.567 208.44C231.909 209.521 232.87 210.288 234 210.381V211.1C234 213.033 232.433 214.6 230.5 214.6C228.567 214.6 227 213.033 227 211.1ZM230.5 216C230.974 215.999 231.446 215.928 231.9 215.79V216.7C231.902 216.901 231.991 217.09 232.144 217.22L230.5 218.59L228.856 217.221C229.009 217.091 229.098 216.901 229.1 216.7V215.79C229.554 215.928 230.026 215.999 230.5 216ZM239.6 228.6H237.5V222.3H236.1V228.6H224.9V222.3H223.5V228.6H221.4V222.006C221.405 220.43 222.459 219.049 223.978 218.628L227.28 217.73L230.052 220.04C230.312 220.256 230.688 220.256 230.948 220.04L233.72 217.73L237.02 218.628C238.54 219.048 239.594 220.429 239.6 222.006V228.6Z" fill="white"/>
<circle opacity="0.5" cx="230.5" cy="216.5" r="28.5" stroke="white" stroke-linecap="round" stroke-dasharray="2 2"/>
<path d="M223.667 151.184C223.667 149.288 224.44 147.47 225.815 146.129C227.19 144.789 229.055 144.035 231 144.035C232.945 144.035 234.81 144.789 236.186 146.129C237.561 147.47 238.334 149.288 238.334 151.184H236.5C236.5 149.762 235.921 148.398 234.889 147.393C233.858 146.387 232.459 145.823 231 145.823C229.542 145.823 228.143 146.387 227.111 147.393C226.08 148.398 225.5 149.762 225.5 151.184H223.667ZM231 143.142C227.962 143.142 225.5 140.743 225.5 137.781C225.5 134.818 227.962 132.419 231 132.419C234.039 132.419 236.5 134.818 236.5 137.781C236.5 140.743 234.039 143.142 231 143.142ZM231 141.355C233.026 141.355 234.667 139.755 234.667 137.781C234.667 135.806 233.026 134.206 231 134.206C228.974 134.206 227.334 135.806 227.334 137.781C227.334 139.755 228.974 141.355 231 141.355Z" fill="white"/>
<g filter="url(#filter5_d)">
<circle cx="329.5" cy="216.5" r="32.5" fill="#142B68"/>
</g>
<path d="M318.232 209.277C318.232 209.752 318.051 210.155 317.691 210.486C317.336 210.817 316.819 211.009 316.139 211.063V212.082H315.562V211.063C315.123 211.039 314.705 210.958 314.308 210.82C313.917 210.675 313.604 210.495 313.37 210.278L313.704 209.575C313.92 209.773 314.194 209.939 314.524 210.071C314.855 210.197 315.201 210.272 315.562 210.296V208.204C315.141 208.101 314.789 207.99 314.506 207.87C314.23 207.75 313.995 207.572 313.803 207.338C313.616 207.103 313.523 206.797 313.523 206.418C313.523 205.943 313.695 205.54 314.037 205.209C314.386 204.878 314.894 204.686 315.562 204.632V203.603H316.139V204.623C316.482 204.635 316.813 204.689 317.131 204.785C317.456 204.881 317.736 205.011 317.97 205.173L317.673 205.895C317.185 205.588 316.674 205.419 316.139 205.389V207.491C316.578 207.599 316.939 207.714 317.221 207.834C317.504 207.948 317.742 208.123 317.934 208.357C318.133 208.586 318.232 208.892 318.232 209.277ZM314.407 206.382C314.407 206.64 314.506 206.842 314.705 206.986C314.903 207.13 315.189 207.251 315.562 207.347V205.398C315.177 205.447 314.888 205.561 314.696 205.741C314.503 205.916 314.407 206.129 314.407 206.382ZM316.139 210.287C316.542 210.251 316.843 210.149 317.041 209.981C317.246 209.806 317.348 209.59 317.348 209.331C317.348 209.067 317.243 208.865 317.032 208.727C316.828 208.583 316.53 208.456 316.139 208.348V210.287Z" fill="white"/>
<path d="M343.573 210.269C344.283 210.269 344.878 210.017 345.359 209.512L345.937 210.08C345.654 210.405 345.305 210.651 344.89 210.82C344.475 210.988 344.021 211.072 343.528 211.072C343.005 211.072 342.521 210.976 342.076 210.784C341.631 210.585 341.255 210.309 340.948 209.954C340.642 209.599 340.425 209.187 340.299 208.718H339.271V208.213H340.209C340.197 208.057 340.191 207.933 340.191 207.843C340.191 207.753 340.197 207.63 340.209 207.473H339.271V206.968H340.299C340.425 206.499 340.642 206.087 340.948 205.732C341.255 205.377 341.631 205.104 342.076 204.911C342.521 204.713 343.005 204.614 343.528 204.614C344.027 204.614 344.481 204.698 344.89 204.866C345.305 205.035 345.654 205.278 345.937 205.597L345.359 206.165C344.884 205.666 344.289 205.417 343.573 205.417C343.026 205.417 342.545 205.558 342.13 205.841C341.715 206.123 341.423 206.499 341.255 206.968H344.114V207.473H341.129C341.111 207.587 341.102 207.711 341.102 207.843C341.102 207.969 341.111 208.093 341.129 208.213H344.114V208.718H341.255C341.423 209.187 341.715 209.563 342.13 209.846C342.545 210.128 343.026 210.269 343.573 210.269Z" fill="white"/>
<path d="M336.39 217.278L332.3 216.164V215.114C333.615 214.2 334.399 212.701 334.4 211.1V210.4C334.787 210.4 335.1 210.087 335.1 209.7V207.6C335.1 204.507 332.593 202 329.5 202C326.407 202 323.9 204.507 323.9 207.6V209.7C323.9 210.087 324.213 210.4 324.6 210.4V211.1C324.601 212.701 325.385 214.201 326.7 215.115V216.165L322.608 217.279C320.482 217.868 319.007 219.8 319 222.006V229.3C319 229.687 319.313 230 319.7 230H339.3C339.687 230 340 229.687 340 229.3V222.006C339.993 219.799 338.518 217.866 336.39 217.278V217.278ZM325.3 207.6C325.3 205.281 327.181 203.4 329.5 203.4C331.819 203.4 333.7 205.281 333.7 207.6V209H333.239C332.597 209 332.037 208.563 331.881 207.939L331.579 206.73C331.514 206.469 331.303 206.268 331.039 206.214C330.993 206.205 330.946 206.2 330.9 206.2C330.68 206.2 330.472 206.304 330.34 206.48L329.92 207.04C328.992 208.271 327.542 208.996 326 209H325.3V207.6ZM326 211.1V210.4C327.726 210.397 329.376 209.689 330.567 208.44C330.909 209.521 331.87 210.288 333 210.381V211.1C333 213.033 331.433 214.6 329.5 214.6C327.567 214.6 326 213.033 326 211.1ZM329.5 216C329.974 215.999 330.446 215.928 330.9 215.79V216.7C330.902 216.901 330.991 217.09 331.144 217.22L329.5 218.59L327.856 217.221C328.009 217.091 328.098 216.901 328.1 216.7V215.79C328.554 215.928 329.026 215.999 329.5 216ZM338.6 228.6H336.5V222.3H335.1V228.6H323.9V222.3H322.5V228.6H320.4V222.006C320.405 220.43 321.459 219.049 322.978 218.628L326.28 217.73L329.052 220.04C329.312 220.256 329.688 220.256 329.948 220.04L332.72 217.73L336.02 218.628C337.54 219.048 338.594 220.429 338.6 222.006V228.6Z" fill="white"/>
<circle opacity="0.5" cx="329.5" cy="216.5" r="28.5" stroke="white" stroke-linecap="round" stroke-dasharray="2 2"/>
<path d="M322.667 151.184C322.667 149.288 323.44 147.47 324.815 146.129C326.19 144.789 328.055 144.035 330 144.035C331.945 144.035 333.81 144.789 335.186 146.129C336.561 147.47 337.334 149.288 337.334 151.184H335.5C335.5 149.762 334.921 148.398 333.889 147.393C332.858 146.387 331.459 145.823 330 145.823C328.542 145.823 327.143 146.387 326.111 147.393C325.08 148.398 324.5 149.762 324.5 151.184H322.667ZM330 143.142C326.962 143.142 324.5 140.743 324.5 137.781C324.5 134.818 326.962 132.419 330 132.419C333.039 132.419 335.5 134.818 335.5 137.781C335.5 140.743 333.039 143.142 330 143.142ZM330 141.355C332.026 141.355 333.667 139.755 333.667 137.781C333.667 135.806 332.026 134.206 330 134.206C327.974 134.206 326.334 135.806 326.334 137.781C326.334 139.755 327.974 141.355 330 141.355Z" fill="white"/>
<g filter="url(#filter6_d)">
<circle cx="428.5" cy="216.5" r="32.5" fill="#142B68"/>
</g>
<path d="M417.232 209.277C417.232 209.752 417.051 210.155 416.691 210.486C416.336 210.817 415.819 211.009 415.139 211.063V212.082H414.562V211.063C414.123 211.039 413.705 210.958 413.308 210.82C412.917 210.675 412.604 210.495 412.37 210.278L412.704 209.575C412.92 209.773 413.194 209.939 413.524 210.071C413.855 210.197 414.201 210.272 414.562 210.296V208.204C414.141 208.101 413.789 207.99 413.506 207.87C413.23 207.75 412.995 207.572 412.803 207.338C412.616 207.103 412.523 206.797 412.523 206.418C412.523 205.943 412.695 205.54 413.037 205.209C413.386 204.878 413.894 204.686 414.562 204.632V203.603H415.139V204.623C415.482 204.635 415.813 204.689 416.131 204.785C416.456 204.881 416.736 205.011 416.97 205.173L416.673 205.895C416.185 205.588 415.674 205.419 415.139 205.389V207.491C415.578 207.599 415.939 207.714 416.221 207.834C416.504 207.948 416.742 208.123 416.934 208.357C417.133 208.586 417.232 208.892 417.232 209.277ZM413.407 206.382C413.407 206.64 413.506 206.842 413.705 206.986C413.903 207.13 414.189 207.251 414.562 207.347V205.398C414.177 205.447 413.888 205.561 413.696 205.741C413.503 205.916 413.407 206.129 413.407 206.382ZM415.139 210.287C415.542 210.251 415.843 210.149 416.041 209.981C416.246 209.806 416.348 209.59 416.348 209.331C416.348 209.067 416.243 208.865 416.032 208.727C415.828 208.583 415.53 208.456 415.139 208.348V210.287Z" fill="white"/>
<path d="M442.573 210.269C443.283 210.269 443.878 210.017 444.359 209.512L444.937 210.08C444.654 210.405 444.305 210.651 443.89 210.82C443.475 210.988 443.021 211.072 442.528 211.072C442.005 211.072 441.521 210.976 441.076 210.784C440.631 210.585 440.255 210.309 439.948 209.954C439.642 209.599 439.425 209.187 439.299 208.718H438.271V208.213H439.209C439.197 208.057 439.191 207.933 439.191 207.843C439.191 207.753 439.197 207.63 439.209 207.473H438.271V206.968H439.299C439.425 206.499 439.642 206.087 439.948 205.732C440.255 205.377 440.631 205.104 441.076 204.911C441.521 204.713 442.005 204.614 442.528 204.614C443.027 204.614 443.481 204.698 443.89 204.866C444.305 205.035 444.654 205.278 444.937 205.597L444.359 206.165C443.884 205.666 443.289 205.417 442.573 205.417C442.026 205.417 441.545 205.558 441.13 205.841C440.715 206.123 440.423 206.499 440.255 206.968H443.114V207.473H440.129C440.111 207.587 440.102 207.711 440.102 207.843C440.102 207.969 440.111 208.093 440.129 208.213H443.114V208.718H440.255C440.423 209.187 440.715 209.563 441.13 209.846C441.545 210.128 442.026 210.269 442.573 210.269Z" fill="white"/>
<path d="M435.39 217.278L431.3 216.164V215.114C432.615 214.2 433.399 212.701 433.4 211.1V210.4C433.787 210.4 434.1 210.087 434.1 209.7V207.6C434.1 204.507 431.593 202 428.5 202C425.407 202 422.9 204.507 422.9 207.6V209.7C422.9 210.087 423.213 210.4 423.6 210.4V211.1C423.601 212.701 424.385 214.201 425.7 215.115V216.165L421.608 217.279C419.482 217.868 418.007 219.8 418 222.006V229.3C418 229.687 418.313 230 418.7 230H438.3C438.687 230 439 229.687 439 229.3V222.006C438.993 219.799 437.518 217.866 435.39 217.278V217.278ZM424.3 207.6C424.3 205.281 426.181 203.4 428.5 203.4C430.819 203.4 432.7 205.281 432.7 207.6V209H432.239C431.597 209 431.037 208.563 430.881 207.939L430.579 206.73C430.514 206.469 430.303 206.268 430.039 206.214C429.993 206.205 429.946 206.2 429.9 206.2C429.68 206.2 429.472 206.304 429.34 206.48L428.92 207.04C427.992 208.271 426.542 208.996 425 209H424.3V207.6ZM425 211.1V210.4C426.726 210.397 428.376 209.689 429.567 208.44C429.909 209.521 430.87 210.288 432 210.381V211.1C432 213.033 430.433 214.6 428.5 214.6C426.567 214.6 425 213.033 425 211.1ZM428.5 216C428.974 215.999 429.446 215.928 429.9 215.79V216.7C429.902 216.901 429.991 217.09 430.144 217.22L428.5 218.59L426.856 217.221C427.009 217.091 427.098 216.901 427.1 216.7V215.79C427.554 215.928 428.026 215.999 428.5 216ZM437.6 228.6H435.5V222.3H434.1V228.6H422.9V222.3H421.5V228.6H419.4V222.006C419.405 220.43 420.459 219.049 421.978 218.628L425.28 217.73L428.052 220.04C428.312 220.256 428.688 220.256 428.948 220.04L431.72 217.73L435.02 218.628C436.54 219.048 437.594 220.429 437.6 222.006V228.6Z" fill="white"/>
<circle opacity="0.5" cx="428.5" cy="216.5" r="28.5" stroke="white" stroke-linecap="round" stroke-dasharray="2 2"/>
<g filter="url(#filter7_d)">
<circle cx="527.5" cy="216.5" r="32.5" fill="#142B68"/>
</g>
<path d="M516.232 209.277C516.232 209.752 516.051 210.155 515.691 210.486C515.336 210.817 514.819 211.009 514.139 211.063V212.082H513.562V211.063C513.123 211.039 512.705 210.958 512.308 210.82C511.917 210.675 511.604 210.495 511.37 210.278L511.704 209.575C511.92 209.773 512.194 209.939 512.524 210.071C512.855 210.197 513.201 210.272 513.562 210.296V208.204C513.141 208.101 512.789 207.99 512.506 207.87C512.23 207.75 511.995 207.572 511.803 207.338C511.616 207.103 511.523 206.797 511.523 206.418C511.523 205.943 511.695 205.54 512.037 205.209C512.386 204.878 512.894 204.686 513.562 204.632V203.603H514.139V204.623C514.482 204.635 514.813 204.689 515.131 204.785C515.456 204.881 515.736 205.011 515.97 205.173L515.673 205.895C515.185 205.588 514.674 205.419 514.139 205.389V207.491C514.578 207.599 514.939 207.714 515.221 207.834C515.504 207.948 515.742 208.123 515.934 208.357C516.133 208.586 516.232 208.892 516.232 209.277ZM512.407 206.382C512.407 206.64 512.506 206.842 512.705 206.986C512.903 207.13 513.189 207.251 513.562 207.347V205.398C513.177 205.447 512.888 205.561 512.696 205.741C512.503 205.916 512.407 206.129 512.407 206.382ZM514.139 210.287C514.542 210.251 514.843 210.149 515.041 209.981C515.246 209.806 515.348 209.59 515.348 209.331C515.348 209.067 515.243 208.865 515.032 208.727C514.828 208.583 514.53 208.456 514.139 208.348V210.287Z" fill="white"/>
<path d="M541.573 210.269C542.283 210.269 542.878 210.017 543.359 209.512L543.937 210.08C543.654 210.405 543.305 210.651 542.89 210.82C542.475 210.988 542.021 211.072 541.528 211.072C541.005 211.072 540.521 210.976 540.076 210.784C539.631 210.585 539.255 210.309 538.948 209.954C538.642 209.599 538.425 209.187 538.299 208.718H537.271V208.213H538.209C538.197 208.057 538.191 207.933 538.191 207.843C538.191 207.753 538.197 207.63 538.209 207.473H537.271V206.968H538.299C538.425 206.499 538.642 206.087 538.948 205.732C539.255 205.377 539.631 205.104 540.076 204.911C540.521 204.713 541.005 204.614 541.528 204.614C542.027 204.614 542.481 204.698 542.89 204.866C543.305 205.035 543.654 205.278 543.937 205.597L543.359 206.165C542.884 205.666 542.289 205.417 541.573 205.417C541.026 205.417 540.545 205.558 540.13 205.841C539.715 206.123 539.423 206.499 539.255 206.968H542.114V207.473H539.129C539.111 207.587 539.102 207.711 539.102 207.843C539.102 207.969 539.111 208.093 539.129 208.213H542.114V208.718H539.255C539.423 209.187 539.715 209.563 540.13 209.846C540.545 210.128 541.026 210.269 541.573 210.269Z" fill="white"/>
<path d="M534.39 217.278L530.3 216.164V215.114C531.615 214.2 532.399 212.701 532.4 211.1V210.4C532.787 210.4 533.1 210.087 533.1 209.7V207.6C533.1 204.507 530.593 202 527.5 202C524.407 202 521.9 204.507 521.9 207.6V209.7C521.9 210.087 522.213 210.4 522.6 210.4V211.1C522.601 212.701 523.385 214.201 524.7 215.115V216.165L520.608 217.279C518.482 217.868 517.007 219.8 517 222.006V229.3C517 229.687 517.313 230 517.7 230H537.3C537.687 230 538 229.687 538 229.3V222.006C537.993 219.799 536.518 217.866 534.39 217.278V217.278ZM523.3 207.6C523.3 205.281 525.181 203.4 527.5 203.4C529.819 203.4 531.7 205.281 531.7 207.6V209H531.239C530.597 209 530.037 208.563 529.881 207.939L529.579 206.73C529.514 206.469 529.303 206.268 529.039 206.214C528.993 206.205 528.946 206.2 528.9 206.2C528.68 206.2 528.472 206.304 528.34 206.48L527.92 207.04C526.992 208.271 525.542 208.996 524 209H523.3V207.6ZM524 211.1V210.4C525.726 210.397 527.376 209.689 528.567 208.44C528.909 209.521 529.87 210.288 531 210.381V211.1C531 213.033 529.433 214.6 527.5 214.6C525.567 214.6 524 213.033 524 211.1ZM527.5 216C527.974 215.999 528.446 215.928 528.9 215.79V216.7C528.902 216.901 528.991 217.09 529.144 217.22L527.5 218.59L525.856 217.221C526.009 217.091 526.098 216.901 526.1 216.7V215.79C526.554 215.928 527.026 215.999 527.5 216ZM536.6 228.6H534.5V222.3H533.1V228.6H521.9V222.3H520.5V228.6H518.4V222.006C518.405 220.43 519.459 219.049 520.978 218.628L524.28 217.73L527.052 220.04C527.312 220.256 527.688 220.256 527.948 220.04L530.72 217.73L534.02 218.628C535.54 219.048 536.594 220.429 536.6 222.006V228.6Z" fill="white"/>
<circle opacity="0.5" cx="527.5" cy="216.5" r="28.5" stroke="white" stroke-linecap="round" stroke-dasharray="2 2"/>
<circle cx="78" cy="95" r="27" fill="white"/>
<path opacity="0.3" d="M84.92 98.416C84.92 99.68 84.44 100.752 83.48 101.632C82.536 102.512 81.16 103.024 79.352 103.168V105.88H77.816V103.168C76.648 103.104 75.536 102.888 74.48 102.52C73.44 102.136 72.608 101.656 71.984 101.08L72.872 99.208C73.448 99.736 74.176 100.176 75.056 100.528C75.936 100.864 76.856 101.064 77.816 101.128V95.56C76.696 95.288 75.76 94.992 75.008 94.672C74.272 94.352 73.648 93.88 73.136 93.256C72.64 92.632 72.392 91.816 72.392 90.808C72.392 89.544 72.848 88.472 73.76 87.592C74.688 86.712 76.04 86.2 77.816 86.056V83.32H79.352V86.032C80.264 86.064 81.144 86.208 81.992 86.464C82.856 86.72 83.6 87.064 84.224 87.496L83.432 89.416C82.136 88.6 80.776 88.152 79.352 88.072V93.664C80.52 93.952 81.48 94.256 82.232 94.576C82.984 94.88 83.616 95.344 84.128 95.968C84.656 96.576 84.92 97.392 84.92 98.416ZM74.744 90.712C74.744 91.4 75.008 91.936 75.536 92.32C76.064 92.704 76.824 93.024 77.816 93.28V88.096C76.792 88.224 76.024 88.528 75.512 89.008C75 89.472 74.744 90.04 74.744 90.712ZM79.352 101.104C80.424 101.008 81.224 100.736 81.752 100.288C82.296 99.824 82.568 99.248 82.568 98.56C82.568 97.856 82.288 97.32 81.728 96.952C81.184 96.568 80.392 96.232 79.352 95.944V101.104Z" fill="#142B68"/>
<circle cx="468" cy="95" r="27" fill="white"/>
<path opacity="0.3" d="M474.92 98.416C474.92 99.68 474.44 100.752 473.48 101.632C472.536 102.512 471.16 103.024 469.352 103.168V105.88H467.816V103.168C466.648 103.104 465.536 102.888 464.48 102.52C463.44 102.136 462.608 101.656 461.984 101.08L462.872 99.208C463.448 99.736 464.176 100.176 465.056 100.528C465.936 100.864 466.856 101.064 467.816 101.128V95.56C466.696 95.288 465.76 94.992 465.008 94.672C464.272 94.352 463.648 93.88 463.136 93.256C462.64 92.632 462.392 91.816 462.392 90.808C462.392 89.544 462.848 88.472 463.76 87.592C464.688 86.712 466.04 86.2 467.816 86.056V83.32H469.352V86.032C470.264 86.064 471.144 86.208 471.992 86.464C472.856 86.72 473.6 87.064 474.224 87.496L473.432 89.416C472.136 88.6 470.776 88.152 469.352 88.072V93.664C470.52 93.952 471.48 94.256 472.232 94.576C472.984 94.88 473.616 95.344 474.128 95.968C474.656 96.576 474.92 97.392 474.92 98.416ZM464.744 90.712C464.744 91.4 465.008 91.936 465.536 92.32C466.064 92.704 466.824 93.024 467.816 93.28V88.096C466.792 88.224 466.024 88.528 465.512 89.008C465 89.472 464.744 90.04 464.744 90.712ZM469.352 101.104C470.424 101.008 471.224 100.736 471.752 100.288C472.296 99.824 472.568 99.248 472.568 98.56C472.568 97.856 472.288 97.32 471.728 96.952C471.184 96.568 470.392 96.232 469.352 95.944V101.104Z" fill="#142B68"/>
<circle cx="404" cy="121" r="17" fill="white"/>
<path opacity="0.3" d="M408.357 122.669C408.357 123.465 408.055 124.14 407.451 124.694C406.856 125.248 405.99 125.571 404.851 125.661V127.369H403.884V125.661C403.149 125.621 402.449 125.485 401.784 125.253C401.129 125.012 400.605 124.709 400.212 124.347L400.771 123.168C401.134 123.501 401.592 123.778 402.147 123.999C402.701 124.211 403.28 124.337 403.884 124.377V120.871C403.179 120.7 402.59 120.514 402.116 120.312C401.653 120.111 401.26 119.813 400.938 119.421C400.625 119.028 400.469 118.514 400.469 117.879C400.469 117.083 400.756 116.408 401.331 115.854C401.915 115.3 402.766 114.978 403.884 114.887V113.165H404.851V114.872C405.426 114.892 405.98 114.983 406.514 115.144C407.058 115.305 407.526 115.522 407.919 115.794L407.42 117.003C406.604 116.489 405.748 116.207 404.851 116.157V119.677C405.587 119.859 406.191 120.05 406.665 120.252C407.138 120.443 407.536 120.735 407.859 121.128C408.191 121.511 408.357 122.025 408.357 122.669ZM401.95 117.819C401.95 118.252 402.116 118.589 402.449 118.831C402.781 119.073 403.26 119.274 403.884 119.436V116.172C403.24 116.252 402.756 116.444 402.434 116.746C402.111 117.038 401.95 117.396 401.95 117.819ZM404.851 124.362C405.526 124.301 406.03 124.13 406.363 123.848C406.705 123.556 406.876 123.193 406.876 122.76C406.876 122.317 406.7 121.979 406.347 121.748C406.005 121.506 405.506 121.294 404.851 121.113V124.362Z" fill="#142B68"/>
<circle cx="163" cy="121" r="17" fill="white"/>
<path opacity="0.3" d="M167.357 122.669C167.357 123.465 167.055 124.14 166.451 124.694C165.856 125.248 164.99 125.571 163.851 125.661V127.369H162.884V125.661C162.149 125.621 161.449 125.485 160.784 125.253C160.129 125.012 159.605 124.709 159.212 124.347L159.771 123.168C160.134 123.501 160.592 123.778 161.147 123.999C161.701 124.211 162.28 124.337 162.884 124.377V120.871C162.179 120.7 161.59 120.514 161.116 120.312C160.653 120.111 160.26 119.813 159.938 119.421C159.625 119.028 159.469 118.514 159.469 117.879C159.469 117.083 159.756 116.408 160.331 115.854C160.915 115.3 161.766 114.978 162.884 114.887V113.165H163.851V114.872C164.426 114.892 164.98 114.983 165.514 115.144C166.058 115.305 166.526 115.522 166.919 115.794L166.42 117.003C165.604 116.489 164.748 116.207 163.851 116.157V119.677C164.587 119.859 165.191 120.05 165.665 120.252C166.138 120.443 166.536 120.735 166.859 121.128C167.191 121.511 167.357 122.025 167.357 122.669ZM160.95 117.819C160.95 118.252 161.116 118.589 161.449 118.831C161.781 119.073 162.26 119.274 162.884 119.436V116.172C162.24 116.252 161.756 116.444 161.434 116.746C161.111 117.038 160.95 117.396 160.95 117.819ZM163.851 124.362C164.526 124.301 165.03 124.13 165.363 123.848C165.705 123.556 165.876 123.193 165.876 122.76C165.876 122.317 165.7 121.979 165.347 121.748C165.005 121.506 164.506 121.294 163.851 121.113V124.362Z" fill="#142B68"/>
<circle cx="234" cy="151" r="17" fill="white"/>
<path opacity="0.3" d="M238.357 152.669C238.357 153.465 238.055 154.14 237.451 154.694C236.856 155.248 235.99 155.571 234.851 155.661V157.369H233.884V155.661C233.149 155.621 232.449 155.485 231.784 155.253C231.129 155.012 230.605 154.709 230.212 154.347L230.771 153.168C231.134 153.501 231.592 153.778 232.147 153.999C232.701 154.211 233.28 154.337 233.884 154.377V150.871C233.179 150.7 232.59 150.514 232.116 150.312C231.653 150.111 231.26 149.813 230.938 149.421C230.625 149.028 230.469 148.514 230.469 147.879C230.469 147.083 230.756 146.408 231.331 145.854C231.915 145.3 232.766 144.978 233.884 144.887V143.165H234.851V144.872C235.426 144.892 235.98 144.983 236.514 145.144C237.058 145.305 237.526 145.522 237.919 145.794L237.42 147.003C236.604 146.489 235.748 146.207 234.851 146.157V149.677C235.587 149.859 236.191 150.05 236.665 150.252C237.138 150.443 237.536 150.735 237.859 151.128C238.191 151.511 238.357 152.025 238.357 152.669ZM231.95 147.819C231.95 148.252 232.116 148.589 232.449 148.831C232.781 149.073 233.26 149.274 233.884 149.436V146.172C233.24 146.252 232.756 146.444 232.434 146.746C232.111 147.038 231.95 147.396 231.95 147.819ZM234.851 154.362C235.526 154.301 236.03 154.13 236.363 153.848C236.705 153.556 236.876 153.193 236.876 152.76C236.876 152.317 236.7 151.979 236.347 151.748C236.005 151.506 235.506 151.294 234.851 151.113V154.362Z" fill="#142B68"/>
<circle cx="327" cy="151" r="17" fill="white"/>
<path opacity="0.3" d="M331.357 152.669C331.357 153.465 331.055 154.14 330.451 154.694C329.856 155.248 328.99 155.571 327.851 155.661V157.369H326.884V155.661C326.149 155.621 325.449 155.485 324.784 155.253C324.129 155.012 323.605 154.709 323.212 154.347L323.771 153.168C324.134 153.501 324.592 153.778 325.147 153.999C325.701 154.211 326.28 154.337 326.884 154.377V150.871C326.179 150.7 325.59 150.514 325.116 150.312C324.653 150.111 324.26 149.813 323.938 149.421C323.625 149.028 323.469 148.514 323.469 147.879C323.469 147.083 323.756 146.408 324.331 145.854C324.915 145.3 325.766 144.978 326.884 144.887V143.165H327.851V144.872C328.426 144.892 328.98 144.983 329.514 145.144C330.058 145.305 330.526 145.522 330.919 145.794L330.42 147.003C329.604 146.489 328.748 146.207 327.851 146.157V149.677C328.587 149.859 329.191 150.05 329.665 150.252C330.138 150.443 330.536 150.735 330.859 151.128C331.191 151.511 331.357 152.025 331.357 152.669ZM324.95 147.819C324.95 148.252 325.116 148.589 325.449 148.831C325.781 149.073 326.26 149.274 326.884 149.436V146.172C326.24 146.252 325.756 146.444 325.434 146.746C325.111 147.038 324.95 147.396 324.95 147.819ZM327.851 154.362C328.526 154.301 329.03 154.13 329.363 153.848C329.705 153.556 329.876 153.193 329.876 152.76C329.876 152.317 329.7 151.979 329.347 151.748C329.005 151.506 328.506 151.294 327.851 151.113V154.362Z" fill="#142B68"/>
</g>
<defs>
<filter id="filter0_d" x="199.111" y="-14.9111" width="161.778" height="161.778" filterUnits="userSpaceOnUse" color-interpolation-filters="sRGB">
<feFlood flood-opacity="0" result="BackgroundImageFix"/>
<feColorMatrix in="SourceAlpha" type="matrix" values="0 0 0 0 0 0 0 0 0 0 0 0 0 0 0 0 0 0 127 0"/>
<feOffset dy="4.97778"/>
<feGaussianBlur stdDeviation="12.4444"/>
<feColorMatrix type="matrix" values="0 0 0 0 0 0 0 0 0 0 0 0 0 0 0 0 0 0 0.1 0"/>
<feBlend mode="normal" in2="BackgroundImageFix" result="effect1_dropShadow"/>
<feBlend mode="normal" in="SourceGraphic" in2="effect1_dropShadow" result="shape"/>
</filter>
<filter id="filter1_d" x="206.111" y="-7.91111" width="146.844" height="146.844" filterUnits="userSpaceOnUse" color-interpolation-filters="sRGB">
<feFlood flood-opacity="0" result="BackgroundImageFix"/>
<feColorMatrix in="SourceAlpha" type="matrix" values="0 0 0 0 0 0 0 0 0 0 0 0 0 0 0 0 0 0 127 0"/>
<feOffset dy="4.97778"/>
<feGaussianBlur stdDeviation="12.4444"/>
<feColorMatrix type="matrix" values="0 0 0 0 0 0 0 0 0 0 0 0 0 0 0 0 0 0 0.1 0"/>
<feBlend mode="normal" in2="BackgroundImageFix" result="effect1_dropShadow"/>
<feBlend mode="normal" in="SourceGraphic" in2="effect1_dropShadow" result="shape"/>
</filter>
<filter id="filter2_d" x="79" y="168" width="105" height="105" filterUnits="userSpaceOnUse" color-interpolation-filters="sRGB">
<feFlood flood-opacity="0" result="BackgroundImageFix"/>
<feColorMatrix in="SourceAlpha" type="matrix" values="0 0 0 0 0 0 0 0 0 0 0 0 0 0 0 0 0 0 127 0"/>
<feOffset dy="4"/>
<feGaussianBlur stdDeviation="10"/>
<feColorMatrix type="matrix" values="0 0 0 0 0 0 0 0 0 0.0228333 0 0 0 0 0.570833 0 0 0 0.1 0"/>
<feBlend mode="normal" in2="BackgroundImageFix" result="effect1_dropShadow"/>
<feBlend mode="normal" in="SourceGraphic" in2="effect1_dropShadow" result="shape"/>
</filter>
<filter id="filter3_d" x="-20" y="168" width="105" height="105" filterUnits="userSpaceOnUse" color-interpolation-filters="sRGB">
<feFlood flood-opacity="0" result="BackgroundImageFix"/>
<feColorMatrix in="SourceAlpha" type="matrix" values="0 0 0 0 0 0 0 0 0 0 0 0 0 0 0 0 0 0 127 0"/>
<feOffset dy="4"/>
<feGaussianBlur stdDeviation="10"/>
<feColorMatrix type="matrix" values="0 0 0 0 0 0 0 0 0 0.0228333 0 0 0 0 0.570833 0 0 0 0.1 0"/>
<feBlend mode="normal" in2="BackgroundImageFix" result="effect1_dropShadow"/>
<feBlend mode="normal" in="SourceGraphic" in2="effect1_dropShadow" result="shape"/>
</filter>
<filter id="filter4_d" x="178" y="168" width="105" height="105" filterUnits="userSpaceOnUse" color-interpolation-filters="sRGB">
<feFlood flood-opacity="0" result="BackgroundImageFix"/>
<feColorMatrix in="SourceAlpha" type="matrix" values="0 0 0 0 0 0 0 0 0 0 0 0 0 0 0 0 0 0 127 0"/>
<feOffset dy="4"/>
<feGaussianBlur stdDeviation="10"/>
<feColorMatrix type="matrix" values="0 0 0 0 0 0 0 0 0 0.0228333 0 0 0 0 0.570833 0 0 0 0.1 0"/>
<feBlend mode="normal" in2="BackgroundImageFix" result="effect1_dropShadow"/>
<feBlend mode="normal" in="SourceGraphic" in2="effect1_dropShadow" result="shape"/>
</filter>
<filter id="filter5_d" x="277" y="168" width="105" height="105" filterUnits="userSpaceOnUse" color-interpolation-filters="sRGB">
<feFlood flood-opacity="0" result="BackgroundImageFix"/>
<feColorMatrix in="SourceAlpha" type="matrix" values="0 0 0 0 0 0 0 0 0 0 0 0 0 0 0 0 0 0 127 0"/>
<feOffset dy="4"/>
<feGaussianBlur stdDeviation="10"/>
<feColorMatrix type="matrix" values="0 0 0 0 0 0 0 0 0 0.0228333 0 0 0 0 0.570833 0 0 0 0.1 0"/>
<feBlend mode="normal" in2="BackgroundImageFix" result="effect1_dropShadow"/>
<feBlend mode="normal" in="SourceGraphic" in2="effect1_dropShadow" result="shape"/>
</filter>
<filter id="filter6_d" x="376" y="168" width="105" height="105" filterUnits="userSpaceOnUse" color-interpolation-filters="sRGB">
<feFlood flood-opacity="0" result="BackgroundImageFix"/>
<feColorMatrix in="SourceAlpha" type="matrix" values="0 0 0 0 0 0 0 0 0 0 0 0 0 0 0 0 0 0 127 0"/>
<feOffset dy="4"/>
<feGaussianBlur stdDeviation="10"/>
<feColorMatrix type="matrix" values="0 0 0 0 0 0 0 0 0 0.0228333 0 0 0 0 0.570833 0 0 0 0.1 0"/>
<feBlend mode="normal" in2="BackgroundImageFix" result="effect1_dropShadow"/>
<feBlend mode="normal" in="SourceGraphic" in2="effect1_dropShadow" result="shape"/>
</filter>
<filter id="filter7_d" x="475" y="168" width="105" height="105" filterUnits="userSpaceOnUse" color-interpolation-filters="sRGB">
<feFlood flood-opacity="0" result="BackgroundImageFix"/>
<feColorMatrix in="SourceAlpha" type="matrix" values="0 0 0 0 0 0 0 0 0 0 0 0 0 0 0 0 0 0 127 0"/>
<feOffset dy="4"/>
<feGaussianBlur stdDeviation="10"/>
<feColorMatrix type="matrix" values="0 0 0 0 0 0 0 0 0 0 0 0 0 0 0 0 0 0 0.1 0"/>
<feBlend mode="normal" in2="BackgroundImageFix" result="effect1_dropShadow"/>
<feBlend mode="normal" in="SourceGraphic" in2="effect1_dropShadow" result="shape"/>
</filter>
<clipPath id="clip0">
<rect width="560" height="249" fill="white"/>
</clipPath>
<clipPath id="clip1">
<rect x="227" y="107" width="106" height="116" fill="white"/>
</clipPath>
<clipPath id="clip2">
<rect x="128" y="73" width="304" height="146" fill="white"/>
</clipPath>
</defs>
</svg>
