<svg width="80" height="81" viewBox="0 0 80 81" fill="none" xmlns="http://www.w3.org/2000/svg">
<circle cx="39.9998" cy="40.7666" r="40" fill="#BA84FF"/>
<circle cx="39.9998" cy="40.7671" r="32" stroke="white" stroke-linecap="round" stroke-dasharray="6 6"/>
<path d="M39.9998 28.7666L40.4426 28.5345C40.3563 28.3698 40.1857 28.2666 39.9998 28.2666C39.8138 28.2666 39.6432 28.3698 39.5569 28.5345L39.9998 28.7666ZM46.4998 45.9095C46.4998 49.4107 43.5994 52.2666 39.9998 52.2666V53.2666C44.1321 53.2666 47.4998 49.9824 47.4998 45.9095H46.4998ZM39.9998 52.2666C36.4001 52.2666 33.4998 49.4107 33.4998 45.9095H32.4998C32.4998 49.9824 35.8674 53.2666 39.9998 53.2666V52.2666ZM33.4998 45.9095C33.4998 45.0639 33.9036 43.5983 34.5628 41.8058C35.2126 40.0386 36.0816 38.0274 36.9542 36.1265C37.8261 34.227 38.6985 32.4444 39.3531 31.1364C39.6804 30.4825 39.953 29.9476 40.1437 29.5764C40.2391 29.3907 40.3139 29.2461 40.3649 29.1479C40.3904 29.0988 40.4099 29.0614 40.423 29.0363C40.4295 29.0238 40.4345 29.0143 40.4378 29.008C40.4394 29.0049 40.4406 29.0025 40.4414 29.0009C40.4419 29.0002 40.4422 28.9996 40.4423 28.9992C40.4424 28.999 40.4425 28.9989 40.4426 28.9988C40.4426 28.9987 40.4426 28.9987 39.9998 28.7666C39.5569 28.5345 39.5569 28.5346 39.5568 28.5347C39.5567 28.5348 39.5566 28.535 39.5565 28.5352C39.5563 28.5356 39.556 28.5363 39.5555 28.5371C39.5546 28.5388 39.5533 28.5413 39.5516 28.5446C39.5482 28.5512 39.5431 28.5609 39.5364 28.5737C39.523 28.5994 39.5032 28.6374 39.4774 28.6871C39.4258 28.7865 39.3503 28.9324 39.2542 29.1194C39.0621 29.4933 38.7879 30.0314 38.4589 30.6888C37.801 32.0033 36.9234 33.7965 36.0453 35.7093C35.1679 37.6207 34.2869 39.6585 33.6242 41.4606C32.9709 43.2374 32.4998 44.8615 32.4998 45.9095H33.4998ZM39.9998 28.7666C39.5569 28.9987 39.5569 28.9987 39.5569 28.9988C39.557 28.9989 39.5571 28.999 39.5572 28.9992C39.5574 28.9996 39.5577 29.0002 39.5581 29.0009C39.5589 29.0025 39.5601 29.0049 39.5618 29.008C39.565 29.0143 39.57 29.0238 39.5765 29.0363C39.5896 29.0614 39.6091 29.0988 39.6346 29.1479C39.6856 29.2461 39.7604 29.3907 39.8558 29.5764C40.0465 29.9476 40.3191 30.4825 40.6464 31.1364C41.301 32.4444 42.1734 34.227 43.0453 36.1265C43.9179 38.0274 44.7869 40.0386 45.4367 41.8058C46.0959 43.5983 46.4998 45.0639 46.4998 45.9095H47.4998C47.4998 44.8615 47.0286 43.2374 46.3753 41.4606C45.7126 39.6585 44.8316 37.6207 43.9542 35.7093C43.0761 33.7965 42.1985 32.0033 41.5406 30.6888C41.2116 30.0314 40.9374 29.4933 40.7453 29.1194C40.6492 28.9324 40.5737 28.7865 40.5221 28.6871C40.4963 28.6374 40.4765 28.5994 40.4631 28.5737C40.4564 28.5609 40.4513 28.5512 40.4479 28.5446C40.4462 28.5413 40.4449 28.5388 40.444 28.5371C40.4436 28.5363 40.4432 28.5356 40.443 28.5352C40.4429 28.535 40.4428 28.5348 40.4427 28.5347C40.4427 28.5346 40.4426 28.5345 39.9998 28.7666Z" fill="white"/>
</svg>
