<svg width="80" height="81" viewBox="0 0 80 81" fill="none" xmlns="http://www.w3.org/2000/svg">
<circle cx="39.9998" cy="40.7651" r="40" fill="#33B6FF"/>
<circle cx="39.9998" cy="40.7656" r="32" stroke="white" stroke-linecap="round" stroke-dasharray="6 6"/>
<path d="M48.8615 26.5403L48.8469 26.5257H48.8262H26.4038H26.3538V26.5757V56.3954V56.4453L26.4038 56.4454L52.9997 56.4742L53.0498 56.4742V56.4242V30.7493V30.7286L53.0351 30.7139L48.8615 26.5403ZM48.3368 31.2886H52.259V55.6834H28.9004V27.3165H48.2868V31.2386V31.2886H48.3368ZM49.0776 30.5266V27.8765L51.7277 30.5266H49.0776ZM28.1096 55.6834H27.1446V27.3165H28.1096V55.6834Z" fill="white" stroke="white" stroke-width="0.1"/>
<path d="M42.6582 38.1111L42.6576 38.1143L42.609 38.1022L42.6582 38.1111ZM42.6582 38.1111C42.7112 37.8197 42.9483 37.6341 43.2422 37.6341M42.6582 38.1111L43.2422 37.6341M43.2422 37.6341H43.2424M43.2422 37.6341H43.2424M43.2424 37.6341H43.2426M43.2424 37.6341H43.2426M43.2426 37.6341H43.2427M43.2426 37.6341H43.2427M43.2427 37.6341H43.2429M43.2427 37.6341H43.2429M43.2429 37.6341H43.2431M43.2429 37.6341H43.2431M43.2431 37.6341H43.2433M43.2431 37.6341H43.2433M43.2433 37.6341H43.2434M43.2433 37.6341H43.2434M43.2434 37.6341H43.2436M43.2434 37.6341H43.2436M43.2436 37.6341H43.2438M43.2436 37.6341H43.2438M43.2438 37.6341H43.244M43.2438 37.6341H43.244M43.244 37.6341H43.2441M43.244 37.6341H43.2441M43.2441 37.6341H43.2443M43.2441 37.6341H43.2443M43.2443 37.6341H43.2445M43.2443 37.6341H43.2445M43.2445 37.6341H43.2447M43.2445 37.6341H43.2447M43.2447 37.6341H43.2448M43.2447 37.6341H43.2448M43.2448 37.6341H43.245M43.2448 37.6341H43.245M43.245 37.6341H43.2452M43.245 37.6341H43.2452M43.2452 37.6341H43.2454M43.2452 37.6341H43.2454M43.2454 37.6341H43.2456M43.2454 37.6341H43.2456M43.2456 37.6341H43.2457M43.2456 37.6341H43.2457M43.2457 37.6341H43.2459M43.2457 37.6341H43.2459M43.2459 37.6341H43.2461M43.2459 37.6341H43.2461M43.2461 37.6341H43.2463M43.2461 37.6341H43.2463M43.2463 37.6341H43.2465M43.2463 37.6341H43.2465M43.2465 37.6341H43.2467M43.2465 37.6341H43.2467M43.2467 37.6341H43.2468M43.2467 37.6341H43.2468M43.2468 37.6341H43.247M43.2468 37.6341H43.247M43.247 37.6341H43.2472M43.247 37.6341H43.2472M43.2472 37.6341H43.2474M43.2472 37.6341H43.2474M43.2474 37.6341H43.2476M43.2474 37.6341H43.2476M43.2476 37.6341H43.2478M43.2476 37.6341H43.2478M43.2478 37.6341H43.248M43.2478 37.6341H43.248M43.248 37.6341H43.2481M43.248 37.6341H43.2481M43.2481 37.6341H43.2483M43.2481 37.6341H43.2483M43.2483 37.6341H43.2485M43.2483 37.6341H43.2485M43.2485 37.6341H43.2487M43.2485 37.6341H43.2487M43.2487 37.6341H43.2489M43.2487 37.6341H43.2489M43.2489 37.6341H43.2491M43.2489 37.6341H43.2491M43.2491 37.6341H43.2493M43.2491 37.6341H43.2493M43.2493 37.6341H43.2495M43.2493 37.6341H43.2495M43.2495 37.6341H43.2497M43.2495 37.6341H43.2497M43.2497 37.6341H43.2499M43.2497 37.6341H43.2499M43.2499 37.6341H43.2501M43.2499 37.6341H43.2501M43.2501 37.6341H43.2503M43.2501 37.6341H43.2503M43.2503 37.6341H43.2505M43.2503 37.6341H43.2505M43.2505 37.6341H43.2507M43.2505 37.6341H43.2507M43.2507 37.6341H43.2508M43.2507 37.6341H43.2508M43.2508 37.6341H43.251M43.2508 37.6341H43.251M43.251 37.6341H43.2512M43.251 37.6341H43.2512M43.2512 37.6341H43.2514M43.2512 37.6341H43.2514M43.2514 37.6341H43.2516M43.2514 37.6341H43.2516M43.2516 37.6341H43.2518M43.2516 37.6341H43.2518M43.2518 37.6341H43.252M43.2518 37.6341H43.252M43.252 37.6341H43.2522M43.252 37.6341H43.2522M43.2522 37.6341H43.2524M43.2522 37.6341H43.2524M43.2524 37.6341H43.2526M43.2524 37.6341H43.2526M43.2526 37.6341H43.2528M43.2526 37.6341H43.2528M43.2528 37.6341H43.253M43.2528 37.6341H43.253M43.253 37.6341H43.2532M43.253 37.6341H43.2532M43.2532 37.6341H43.2534M43.2532 37.6341H43.2534M43.2534 37.6341H43.2537M43.2534 37.6341H43.2537M43.2537 37.6341H43.2539M43.2537 37.6341H43.2539M43.2539 37.6341H43.2541M43.2539 37.6341H43.2541M43.2541 37.6341H43.2543M43.2541 37.6341H43.2543M43.2543 37.6341H43.2545M43.2543 37.6341H43.2545M43.2545 37.6341H43.2547M43.2545 37.6341H43.2547M43.2547 37.6341H43.2549M43.2547 37.6341H43.2549M43.2549 37.6341H43.2551M43.2549 37.6341H43.2551M43.2551 37.6341H43.2553M43.2551 37.6341H43.2553M43.2553 37.6341H43.2555M43.2553 37.6341H43.2555M43.2555 37.6341H43.2557M43.2555 37.6341H43.2557M43.2557 37.6341H43.2559M43.2557 37.6341H43.2559M43.2559 37.6341H43.2561M43.2559 37.6341H43.2561M43.2561 37.6341H43.2563M43.2561 37.6341H43.2563M43.2563 37.6341H43.2566M43.2563 37.6341H43.2566M43.2566 37.6341H43.2568M43.2566 37.6341H43.2568M43.2568 37.6341H43.257M43.2568 37.6341H43.257M43.257 37.6341H43.2572M43.257 37.6341H43.2572M43.2572 37.6341H43.2574M43.2572 37.6341H43.2574M43.2574 37.6341H43.2576M43.2574 37.6341H43.2576M43.2576 37.6341H43.2578M43.2576 37.6341H43.2578M43.2578 37.6341H43.258M43.2578 37.6341H43.258M43.258 37.6341H43.2583M43.258 37.6341H43.2583M43.2583 37.6341H43.2585M43.2583 37.6341H43.2585M43.2585 37.6341H43.2587M43.2585 37.6341H43.2587M43.2587 37.6341H43.2589M43.2587 37.6341H43.2589M43.2589 37.6341H43.2591M43.2589 37.6341H43.2591M43.2591 37.6341H43.2593M43.2591 37.6341H43.2593M43.2593 37.6341H43.2596M43.2593 37.6341H43.2596M43.2596 37.6341H43.2598M43.2596 37.6341H43.2598M43.2598 37.6341H43.26M43.2598 37.6341H43.26M43.26 37.6341H43.2602M43.26 37.6341H43.2602M43.2602 37.6341H43.2604M43.2602 37.6341H43.2604M43.2604 37.6341H43.2606M43.2604 37.6341H43.2606M43.2606 37.6341H43.2609M43.2606 37.6341H43.2609M43.2609 37.6341H43.2611M43.2609 37.6341H43.2611M43.2611 37.6341H43.2613M43.2611 37.6341H43.2613M43.2613 37.6341H43.2615M43.2613 37.6341H43.2615M43.2615 37.6341H43.2617M43.2615 37.6341H43.2617M43.2617 37.6341H43.262M43.2617 37.6341H43.262M43.262 37.6341H43.2622M43.262 37.6341H43.2622M43.2622 37.6341H43.2624M43.2622 37.6341H43.2624M43.2624 37.6341H43.2626M43.2624 37.6341H43.2626M43.2626 37.6341H43.2629M43.2626 37.6341H43.2629M43.2629 37.6341H43.2631M43.2629 37.6341H43.2631M43.2631 37.6341H43.2633M43.2631 37.6341H43.2633M43.2633 37.6341H43.2635M43.2633 37.6341H43.2635M43.2635 37.6341H43.2638M43.2635 37.6341H43.2638M43.2638 37.6341H43.264M43.2638 37.6341H43.264M43.264 37.6341H43.2642M43.264 37.6341H43.2642M43.2642 37.6341H43.2644M43.2642 37.6341H43.2644M43.2644 37.6341H43.2647M43.2644 37.6341H43.2647M43.2647 37.6341H43.2649M43.2647 37.6341H43.2649M43.2649 37.6341H43.2651M43.2649 37.6341H43.2651M43.2651 37.6341H43.2653M43.2651 37.6341H43.2653M43.2653 37.6341H43.2656M43.2653 37.6341H43.2656M43.2656 37.6341H43.2658M43.2656 37.6341H43.2658M43.2658 37.6341H43.266M43.2658 37.6341H43.266M43.266 37.6341H43.2662M43.266 37.6341H43.2662M43.2662 37.6341H43.2665M43.2662 37.6341H43.2665M43.2665 37.6341H43.2667M43.2665 37.6341H43.2667M43.2667 37.6341H43.2669M43.2667 37.6341H43.2669M43.2669 37.6341H43.2672M43.2669 37.6341H43.2672M43.2672 37.6341H43.2674M43.2672 37.6341H43.2674M43.2674 37.6341H43.2676M43.2674 37.6341H43.2676M43.2676 37.6341H43.2679M43.2676 37.6341H43.2679M43.2679 37.6341H43.2681M43.2679 37.6341H43.2681M43.2681 37.6341H43.2683M43.2681 37.6341H43.2683M43.2683 37.6341H43.2686M43.2683 37.6341H43.2686M43.2686 37.6341H43.2688M43.2686 37.6341H43.2688M43.2688 37.6341H43.269M43.2688 37.6341H43.269M43.269 37.6341H43.2693M43.269 37.6341H43.2693M43.2693 37.6341H43.2695M43.2693 37.6341H43.2695M43.2695 37.6341H43.2697M43.2695 37.6341H43.2697M43.2697 37.6341H43.27M43.2697 37.6341H43.27M43.27 37.6341H43.2702M43.27 37.6341H43.2702M43.2702 37.6341H43.2704M43.2702 37.6341H43.2704M43.2704 37.6341H43.2707M43.2704 37.6341H43.2707M43.2707 37.6341H43.2709M43.2707 37.6341H43.2709M43.2709 37.6341H43.2711M43.2709 37.6341H43.2711M43.2711 37.6341H43.2714M43.2711 37.6341H43.2714M43.2714 37.6341H43.2716M43.2714 37.6341H43.2716M43.2716 37.6341H43.2718M43.2716 37.6341H43.2718M43.2718 37.6341H43.2721M43.2718 37.6341H43.2721M43.2721 37.6341H43.2723M43.2721 37.6341H43.2723M43.2723 37.6341H43.2725M43.2723 37.6341H43.2725M43.2725 37.6341H43.2728M43.2725 37.6341H43.2728M43.2728 37.6341H43.273M43.2728 37.6341H43.273M43.273 37.6341H43.2733M43.273 37.6341H43.2733M43.2733 37.6341H43.2735M43.2733 37.6341H43.2735M43.2735 37.6341H43.2737M43.2735 37.6341H43.2737M43.2737 37.6341H43.274M43.2737 37.6341H43.274M43.274 37.6341H43.2742M43.274 37.6341H43.2742M43.2742 37.6341H43.2745M43.2742 37.6341H43.2745M43.2745 37.6341H43.2747M43.2745 37.6341H43.2747M43.2747 37.6341H43.2749M43.2747 37.6341H43.2749M43.2749 37.6341H43.2752M43.2749 37.6341H43.2752M43.2752 37.6341H43.2754M43.2752 37.6341H43.2754M43.2754 37.6341H43.2757M43.2754 37.6341H43.2757M43.2757 37.6341H43.2759M43.2757 37.6341H43.2759M43.2759 37.6341H43.2761M43.2759 37.6341H43.2761M43.2761 37.6341H43.2764M43.2761 37.6341H43.2764M43.2764 37.6341H43.2766M43.2764 37.6341H43.2766M43.2766 37.6341H43.2769M43.2766 37.6341H43.2769M43.2769 37.6341H43.2771M43.2769 37.6341H43.2771M43.2771 37.6341H43.2773M43.2771 37.6341H43.2773M43.2773 37.6341H43.2776M43.2773 37.6341H43.2776M43.2776 37.6341H43.2778M43.2776 37.6341H43.2778M43.2778 37.6341H43.2781M43.2778 37.6341H43.2781M43.2781 37.6341H43.2783M43.2781 37.6341H43.2783M43.2783 37.6341H43.2786M43.2783 37.6341H43.2786M43.2786 37.6341H43.2788M43.2786 37.6341H43.2788M43.2788 37.6341H43.2791M43.2788 37.6341H43.2791M43.2791 37.6341H43.2793M43.2791 37.6341H43.2793M43.2793 37.6341H43.2795M43.2793 37.6341H43.2795M43.2795 37.6341H43.2798M43.2795 37.6341H43.2798M43.2798 37.6341H43.28M43.2798 37.6341H43.28M43.28 37.6341H43.2803M43.28 37.6341H43.2803M43.2803 37.6341H43.2805M43.2803 37.6341H43.2805M43.2805 37.6341H43.2808M43.2805 37.6341H43.2808M43.2808 37.6341H43.281M43.2808 37.6341H43.281M43.281 37.6341H43.2813M43.281 37.6341H43.2813M43.2813 37.6341H43.2815M43.2813 37.6341H43.2815M43.2815 37.6341H43.2817M43.2815 37.6341H43.2817M43.2817 37.6341H43.282M43.2817 37.6341H43.282M43.282 37.6341H43.2822M43.282 37.6341H43.2822M43.2822 37.6341H43.2825M43.2822 37.6341H43.2825M43.2825 37.6341H43.2827M43.2825 37.6341H43.2827M43.2827 37.6341H43.283M43.2827 37.6341H43.283M43.283 37.6341H43.2832M43.283 37.6341H43.2832M43.2832 37.6341H43.2835M43.2832 37.6341H43.2835M43.2835 37.6341H43.2837M43.2835 37.6341H43.2837M43.2837 37.6341H43.284M43.2837 37.6341H43.284M43.284 37.6341H43.2842M43.284 37.6341H43.2842M43.2842 37.6341H43.2845M43.2842 37.6341H43.2845M43.2845 37.6341H43.2847M43.2845 37.6341H43.2847M43.2847 37.6341H43.285M43.2847 37.6341H43.285M43.285 37.6341H43.2852M43.285 37.6341H43.2852M43.2852 37.6341H43.2855M43.2852 37.6341H43.2855M43.2855 37.6341H43.2857M43.2855 37.6341H43.2857M43.2857 37.6341H43.286M43.2857 37.6341H43.286M43.286 37.6341H43.2862M43.286 37.6341H43.2862M43.2862 37.6341H43.2865M43.2862 37.6341H43.2865M43.2865 37.6341H43.2867M43.2865 37.6341H43.2867M43.2867 37.6341H43.287M43.2867 37.6341H43.287M43.287 37.6341H43.2872M43.287 37.6341H43.2872M43.2872 37.6341H43.2875M43.2872 37.6341H43.2875M43.2875 37.6341H43.2877M43.2875 37.6341H43.2877M43.2877 37.6341H43.288M43.2877 37.6341H43.288M43.288 37.6341H43.2882M43.288 37.6341H43.2882M43.2882 37.6341H43.2885M43.2882 37.6341H43.2885M43.2885 37.6341H43.2887M43.2885 37.6341H43.2887M43.2887 37.6341H43.289M43.2887 37.6341H43.289M43.289 37.6341H43.2892M43.289 37.6341H43.2892M43.2892 37.6341H43.2895M43.2892 37.6341H43.2895M43.2895 37.6341H43.2897M43.2895 37.6341H43.2897M43.2897 37.6341H43.29M43.2897 37.6341H43.29M43.29 37.6341H43.2902M43.29 37.6341H43.2902M43.2902 37.6341H43.2905M43.2902 37.6341H43.2905M43.2905 37.6341H43.2907M43.2905 37.6341H43.2907M43.2907 37.6341H43.291M43.2907 37.6341H43.291M43.291 37.6341H43.2912M43.291 37.6341H43.2912M43.2912 37.6341H43.2915M43.2912 37.6341H43.2915M43.2915 37.6341H43.2917M43.2915 37.6341H43.2917M43.2917 37.6341H43.292M43.2917 37.6341H43.292M43.292 37.6341H43.2922M43.292 37.6341H43.2922M43.2922 37.6341H43.2925M43.2922 37.6341H43.2925M43.2925 37.6341H43.2927M43.2925 37.6341H43.2927M43.2927 37.6341H43.293M43.2927 37.6341H43.293M43.293 37.6341H43.2932M43.293 37.6341H43.2932M43.2932 37.6341H43.2935M43.2932 37.6341H43.2935M43.2935 37.6341H43.2937M43.2935 37.6341H43.2937M43.2937 37.6341H43.294M43.2937 37.6341H43.294M43.294 37.6341H43.2942M43.294 37.6341H43.2942M43.2942 37.6341H43.2945M43.2942 37.6341H43.2945M43.2945 37.6341H43.2947M43.2945 37.6341H43.2947M43.2947 37.6341H43.295M43.2947 37.6341H43.295M43.295 37.6341H43.2953M43.295 37.6341H43.2953M43.2953 37.6341H43.2955M43.2953 37.6341H43.2955M43.2955 37.6341H43.2958M43.2955 37.6341H43.2958M43.2958 37.6341H43.296M43.2958 37.6341H43.296M43.296 37.6341H43.2963M43.296 37.6341H43.2963M43.2963 37.6341H43.2965M43.2963 37.6341H43.2965M43.2965 37.6341H43.2968M43.2965 37.6341H43.2968M43.2968 37.6341H43.297M43.2968 37.6341H43.297M43.297 37.6341H43.2973M43.297 37.6341H43.2973M43.2973 37.6341H43.2975M43.2973 37.6341H43.2975M43.2975 37.6341H43.2978M43.2975 37.6341H43.2978M43.2978 37.6341H43.298M43.2978 37.6341H43.298M43.298 37.6341H43.2983M43.298 37.6341H43.2983M43.2983 37.6341H43.2985M43.2983 37.6341H43.2985M43.2985 37.6341H43.2988M43.2985 37.6341H43.2988M43.2988 37.6341H43.299M43.2988 37.6341H43.299M43.299 37.6341H43.2993M43.299 37.6341H43.2993M43.2993 37.6341H43.2996M43.2993 37.6341H43.2996M43.2996 37.6341H43.2998M43.2996 37.6341H43.2998M43.2998 37.6341H43.3001M43.2998 37.6341H43.3001M43.3001 37.6341H43.3003M43.3001 37.6341H43.3003M43.3003 37.6341H43.3006M43.3003 37.6341H43.3006M43.3006 37.6341H43.3008M43.3006 37.6341H43.3008M43.3008 37.6341H43.3011M43.3008 37.6341H43.3011M43.3011 37.6341H43.3013M43.3011 37.6341H43.3013M43.3013 37.6341H43.3016M43.3013 37.6341H43.3016M43.3016 37.6341H43.3018M43.3016 37.6341H43.3018M43.3018 37.6341H43.3021M43.3018 37.6341H43.3021M43.3021 37.6341H43.3023M43.3021 37.6341H43.3023M43.3023 37.6341H43.3026M43.3023 37.6341H43.3026M43.3026 37.6341H43.3028M43.3026 37.6341H43.3028M43.3028 37.6341H43.3031M43.3028 37.6341H43.3031M43.3031 37.6341H43.3033M43.3031 37.6341H43.3033M43.3033 37.6341H43.3036M43.3033 37.6341H43.3036M43.3036 37.6341H43.3039M43.3036 37.6341H43.3039M43.3039 37.6341H43.3041M43.3039 37.6341H43.3041M43.3041 37.6341H43.3044M43.3041 37.6341H43.3044M43.3044 37.6341H43.3046M43.3044 37.6341H43.3046M43.3046 37.6341H43.3049M43.3046 37.6341H43.3049M43.3049 37.6341H43.3051M43.3049 37.6341H43.3051M43.3051 37.6341H43.3054M43.3051 37.6341H43.3054M43.3054 37.6341H43.3056M43.3054 37.6341H43.3056M43.3056 37.6341H43.3059M43.3056 37.6341H43.3059M43.3059 37.6341H43.3061M43.3059 37.6341H43.3061M43.3061 37.6341H43.3064M43.3061 37.6341H43.3064M43.3064 37.6341H43.3066M43.3064 37.6341H43.3066M43.3066 37.6341H43.3069M43.3066 37.6341H43.3069M43.3069 37.6341H43.3071M43.3069 37.6341H43.3071M43.3071 37.6341H43.3074M43.3071 37.6341H43.3074M43.3074 37.6341H43.3076M43.3074 37.6341H43.3076M43.3076 37.6341H43.3079M43.3076 37.6341H43.3079M43.3079 37.6341H43.3081M43.3079 37.6341H43.3081M43.3081 37.6341H43.3084M43.3081 37.6341H43.3084M43.3084 37.6341H43.3086M43.3084 37.6341H43.3086M43.3086 37.6341H43.3089M43.3086 37.6341H43.3089M43.3089 37.6341H43.3091M43.3089 37.6341H43.3091M43.3091 37.6341H43.3094M43.3091 37.6341H43.3094M43.3094 37.6341H43.3096M43.3094 37.6341H43.3096M43.3096 37.6341H43.3099M43.3096 37.6341H43.3099M43.3099 37.6341H43.3101M43.3099 37.6341H43.3101M43.3101 37.6341H43.3104M43.3101 37.6341H43.3104M43.3104 37.6341H43.3106M43.3104 37.6341H43.3106M43.3106 37.6341H43.3109M43.3106 37.6341H43.3109M43.3109 37.6341H43.3111M43.3109 37.6341H43.3111M43.3111 37.6341H43.3114M43.3111 37.6341H43.3114M43.3114 37.6341H43.3116M43.3114 37.6341H43.3116M43.3116 37.6341H43.3119M43.3116 37.6341H43.3119M43.3119 37.6341H43.3121M43.3119 37.6341H43.3121M43.3121 37.6341H43.3124M43.3121 37.6341H43.3124M43.3124 37.6341H43.3126M43.3124 37.6341H43.3126M43.3126 37.6341H43.3129M43.3126 37.6341H43.3129M43.3129 37.6341H43.3131M43.3129 37.6341H43.3131M43.3131 37.6341H43.3134M43.3131 37.6341H43.3134M43.3134 37.6341H43.3136M43.3134 37.6341H43.3136M43.3136 37.6341H43.3139M43.3136 37.6341H43.3139M43.3139 37.6341H43.3141M43.3139 37.6341H43.3141M43.3141 37.6341H43.3144M43.3141 37.6341H43.3144M43.3144 37.6341H43.3146M43.3144 37.6341H43.3146M43.3146 37.6341H43.3149M43.3146 37.6341H43.3149M43.3149 37.6341H43.3151M43.3149 37.6341H43.3151M43.3151 37.6341H43.3154M43.3151 37.6341H43.3154M43.3154 37.6341H43.3156M43.3154 37.6341H43.3156M43.3156 37.6341H43.3159M43.3156 37.6341H43.3159M43.3159 37.6341H43.3161M43.3159 37.6341H43.3161M43.3161 37.6341H43.3164M43.3161 37.6341H43.3164M43.3164 37.6341H43.3166M43.3164 37.6341H43.3166M43.3166 37.6341H43.3169M43.3166 37.6341H43.3169M43.3169 37.6341H43.3171M43.3169 37.6341H43.3171M43.3171 37.6341H43.3174M43.3171 37.6341H43.3174M43.3174 37.6341H43.3176M43.3174 37.6341H43.3176M43.3176 37.6341H43.3179M43.3176 37.6341H43.3179M43.3179 37.6341H43.3181M43.3179 37.6341H43.3181M43.3181 37.6341H43.3184M43.3181 37.6341H43.3184M43.3184 37.6341H43.3186M43.3184 37.6341H43.3186M43.3186 37.6341H43.3188M43.3186 37.6341H43.3188M43.3188 37.6341H43.3191M43.3188 37.6341H43.3191M43.3191 37.6341H43.3193M43.3191 37.6341H43.3193M43.3193 37.6341H43.3196M43.3193 37.6341H43.3196M43.3196 37.6341H43.3198M43.3196 37.6341H43.3198M43.3198 37.6341H43.3201M43.3198 37.6341H43.3201M43.3201 37.6341H43.3203M43.3201 37.6341H43.3203M43.3203 37.6341H43.3206M43.3203 37.6341H43.3206M43.3206 37.6341H43.3208M43.3206 37.6341H43.3208M43.3208 37.6341H43.321M43.3208 37.6341H43.321M43.321 37.6341H43.3213M43.321 37.6341H43.3213M43.3213 37.6341H43.3215M43.3213 37.6341H43.3215M43.3215 37.6341H43.3218M43.3215 37.6341H43.3218M43.3218 37.6341H43.322M43.3218 37.6341H43.322M43.322 37.6341H43.3223M43.322 37.6341H43.3223M43.3223 37.6341H43.3225M43.3223 37.6341H43.3225M43.3225 37.6341H43.3227M43.3225 37.6341H43.3227M43.3227 37.6341H43.323M43.3227 37.6341H43.323M43.323 37.6341H43.3232M43.323 37.6341H43.3232M43.3232 37.6341H43.3235M43.3232 37.6341H43.3235M43.3235 37.6341H43.3237M43.3235 37.6341H43.3237M43.3237 37.6341H43.324M43.3237 37.6341H43.324M43.324 37.6341H43.3242M43.324 37.6341H43.3242M43.3242 37.6341H43.3244M43.3242 37.6341H43.3244M43.3244 37.6341H43.3247M43.3244 37.6341H43.3247M43.3247 37.6341H43.3249M43.3247 37.6341H43.3249M43.3249 37.6341H43.3252M43.3249 37.6341H43.3252M43.3252 37.6341H43.3254M43.3252 37.6341H43.3254M43.3254 37.6341H43.3256M43.3254 37.6341H43.3256M43.3256 37.6341H43.3259M43.3256 37.6341H43.3259M43.3259 37.6341H43.3261M43.3259 37.6341H43.3261M43.3261 37.6341H43.3263M43.3261 37.6341H43.3263M43.3263 37.6341H43.3266M43.3263 37.6341H43.3266M43.3266 37.6341H43.3268M43.3266 37.6341H43.3268M43.3268 37.6341H43.3271M43.3268 37.6341H43.3271M43.3271 37.6341H43.3273M43.3271 37.6341H43.3273M43.3273 37.6341H43.3275M43.3273 37.6341H43.3275M43.3275 37.6341H43.3278M43.3275 37.6341H43.3278M43.3278 37.6341H43.328M43.3278 37.6341H43.328M43.328 37.6341H43.3282M43.328 37.6341H43.3282M43.3282 37.6341H43.3285M43.3282 37.6341H43.3285M43.3285 37.6341H43.3287M43.3285 37.6341H43.3287M43.3287 37.6341H43.329M43.3287 37.6341H43.329M43.329 37.6341H43.3292M43.329 37.6341H43.3292M43.3292 37.6341H43.3294M43.3292 37.6341H43.3294M43.3294 37.6341H43.3297M43.3294 37.6341H43.3297M43.3297 37.6341H43.3299M43.3297 37.6341H43.3299M43.3299 37.6341H43.3301M43.3299 37.6341H43.3301M43.3301 37.6341H43.3304M43.3301 37.6341H43.3304M43.3304 37.6341H43.3306M43.3304 37.6341H43.3306M43.3306 37.6341H43.3308M43.3306 37.6341H43.3308M43.3308 37.6341H43.3311M43.3308 37.6341H43.3311M43.3311 37.6341H43.3313M43.3311 37.6341H43.3313M43.3313 37.6341H43.3315M43.3313 37.6341H43.3315M43.3315 37.6341H43.3317M43.3315 37.6341H43.3317M43.3317 37.6341H43.332M43.3317 37.6341H43.332M43.332 37.6341H43.3322M43.332 37.6341H43.3322M43.3322 37.6341H43.3324M43.3322 37.6341H43.3324M43.3324 37.6341H43.3327M43.3324 37.6341H43.3327M43.3327 37.6341H43.3329M43.3327 37.6341H43.3329M43.3329 37.6341H43.3331M43.3329 37.6341H43.3331M43.3331 37.6341H43.3334M43.3331 37.6341H43.3334M43.3334 37.6341H43.3336M43.3334 37.6341H43.3336M43.3336 37.6341H43.3338M43.3336 37.6341H43.3338M43.3338 37.6341H43.334M43.3338 37.6341H43.334M43.334 37.6341H43.3343M43.334 37.6341H43.3343M43.3343 37.6341H43.3345M43.3343 37.6341H43.3345M43.3345 37.6341H43.3347M43.3345 37.6341H43.3347M43.3347 37.6341H43.335M43.3347 37.6341H43.335M43.335 37.6341H43.3352M43.335 37.6341H43.3352M43.3352 37.6341H43.3354M43.3352 37.6341H43.3354M43.3354 37.6341H43.3356M43.3354 37.6341H43.3356M43.3356 37.6341H43.3359M43.3356 37.6341H43.3359M43.3359 37.6341H43.3361M43.3359 37.6341H43.3361M43.3361 37.6341H43.3363M43.3361 37.6341H43.3363M43.3363 37.6341H43.3365M43.3363 37.6341H43.3365M43.3365 37.6341H43.3368M43.3365 37.6341H43.3368M43.3368 37.6341H43.337M43.3368 37.6341H43.337M43.337 37.6341H43.3372M43.337 37.6341H43.3372M43.3372 37.6341H43.3374M43.3372 37.6341H43.3374M43.3374 37.6341H43.3376M43.3374 37.6341H43.3376M43.3376 37.6341H43.3379M43.3376 37.6341H43.3379M43.3379 37.6341H43.3381M43.3379 37.6341H43.3381M43.3381 37.6341H43.3383M43.3381 37.6341H43.3383M43.3383 37.6341H43.3385M43.3383 37.6341H43.3385M43.3385 37.6341H43.3387M43.3385 37.6341H43.3387M43.3387 37.6341H43.339M43.3387 37.6341H43.339M43.339 37.6341H43.3392M43.339 37.6341H43.3392M43.3392 37.6341H43.3394M43.3392 37.6341H43.3394M43.3394 37.6341H43.3396M43.3394 37.6341H43.3396M43.3396 37.6341H43.3398M43.3396 37.6341H43.3398M43.3398 37.6341H43.3401M43.3398 37.6341H43.3401M43.3401 37.6341H43.3403M43.3401 37.6341H43.3403M43.3403 37.6341H43.3405M43.3403 37.6341H43.3405M43.3405 37.6341H43.3407M43.3405 37.6341H43.3407M43.3407 37.6341H43.3409M43.3407 37.6341H43.3409M43.3409 37.6341H43.3411M43.3409 37.6341H43.3411M43.3411 37.6341H43.3413M43.3411 37.6341H43.3413M43.3413 37.6341H43.3416M43.3413 37.6341H43.3416M43.3416 37.6341H43.3418M43.3416 37.6341H43.3418M43.3418 37.6341H43.342M43.3418 37.6341H43.342M43.342 37.6341H43.3422M43.342 37.6341H43.3422M43.3422 37.6341H43.3424M43.3422 37.6341H43.3424M43.3424 37.6341H43.3426M43.3424 37.6341H43.3426M43.3426 37.6341H43.3428M43.3426 37.6341H43.3428M43.3428 37.6341H43.3431M43.3428 37.6341H43.3431M43.3431 37.6341H43.3433M43.3431 37.6341H43.3433M43.3433 37.6341H43.3435M43.3433 37.6341H43.3435M43.3435 37.6341H43.3437M43.3435 37.6341H43.3437M43.3437 37.6341H43.3439M43.3437 37.6341H43.3439M43.3439 37.6341H43.3441M43.3439 37.6341H43.3441M43.3441 37.6341H43.3443M43.3441 37.6341H43.3443M43.3443 37.6341H43.3445M43.3443 37.6341H43.3445M43.3445 37.6341H43.3447M43.3445 37.6341H43.3447M43.3447 37.6341H43.3449M43.3447 37.6341H43.3449M43.3449 37.6341H43.3451M43.3449 37.6341H43.3451M43.3451 37.6341H43.3453M43.3451 37.6341H43.3453M43.3453 37.6341H43.3455M43.3453 37.6341H43.3455M43.3455 37.6341H43.3458M43.3455 37.6341H43.3458M43.3458 37.6341H43.346M43.3458 37.6341H43.346M43.346 37.6341H43.3462M43.346 37.6341H43.3462M43.3462 37.6341H43.3464M43.3462 37.6341H43.3464M43.3464 37.6341H43.3466M43.3464 37.6341H43.3466M43.3466 37.6341H43.3468M43.3466 37.6341H43.3468M43.3468 37.6341H43.347M43.3468 37.6341H43.347M43.347 37.6341H43.3472M43.347 37.6341H43.3472M43.3472 37.6341H43.3474M43.3472 37.6341H43.3474M43.3474 37.6341H43.3476M43.3474 37.6341H43.3476M43.3476 37.6341H43.3478M43.3476 37.6341H43.3478M43.3478 37.6341H43.348M43.3478 37.6341H43.348M43.348 37.6341H43.3482M43.348 37.6341H43.3482M43.3482 37.6341H43.3484M43.3482 37.6341H43.3484M43.3484 37.6341H43.3486M43.3484 37.6341H43.3486M43.3486 37.6341H43.3488M43.3486 37.6341H43.3488M43.3488 37.6341H43.349M43.3488 37.6341H43.349M43.349 37.6341H43.3492M43.349 37.6341H43.3492M43.3492 37.6341H43.3493M43.3492 37.6341H43.3493M43.3493 37.6341H43.3495M43.3493 37.6341H43.3495M43.3495 37.6341H43.3497M43.3495 37.6341H43.3497M43.3497 37.6341H43.3499M43.3497 37.6341H43.3499M43.3499 37.6341H43.3501M43.3499 37.6341H43.3501M43.3501 37.6341H43.3503M43.3501 37.6341H43.3503M43.3503 37.6341H43.3505M43.3503 37.6341H43.3505M43.3505 37.6341H43.3507M43.3505 37.6341H43.3507M43.3507 37.6341H43.3509M43.3507 37.6341H43.3509M43.3509 37.6341H43.3511M43.3509 37.6341H43.3511M43.3511 37.6341H43.3513M43.3511 37.6341H43.3513M43.3513 37.6341H43.3515M43.3513 37.6341H43.3515M43.3515 37.6341H43.3517M43.3515 37.6341H43.3517M43.3517 37.6341H43.3518M43.3517 37.6341H43.3518M43.3518 37.6341H43.352M43.3518 37.6341H43.352M43.352 37.6341H43.3522M43.352 37.6341H43.3522M43.3522 37.6341H43.3524M43.3522 37.6341H43.3524M43.3524 37.6341H43.3526M43.3524 37.6341H43.3526M43.3526 37.6341H43.3528M43.3526 37.6341H43.3528M43.3528 37.6341H43.353M43.3528 37.6341H43.353M43.353 37.6341H43.3531M43.353 37.6341H43.3531M43.3531 37.6341H43.3532H43.3531ZM32.6032 39.7804L32.6032 39.7804L32.6022 39.7802C31.8539 39.6305 31.138 40.1394 30.989 40.8844C30.8396 41.6317 31.3468 42.3466 32.0902 42.4969C32.1833 42.5273 32.2755 42.5273 32.359 42.5273H32.3621C33.0189 42.5273 33.586 42.0504 33.7062 41.423C33.7626 41.1961 33.7391 40.9696 33.6613 40.7688L37.2238 38.3373C37.3933 38.4728 37.5921 38.5821 37.8199 38.6117C37.9124 38.6415 38.0039 38.6415 38.0869 38.6415H38.09C38.5862 38.6415 39.0524 38.3572 39.2963 37.9279L41.9015 38.4321C41.9755 39.012 42.4154 39.5005 42.9992 39.6186C43.0922 39.6489 43.1844 39.6489 43.2679 39.6489H43.271C43.9278 39.6489 44.4949 39.172 44.6151 38.5447C44.6721 38.3153 44.6473 38.0875 44.569 37.8627L47.9887 35.5452C48.1591 35.6815 48.3568 35.7909 48.582 35.8476C48.6755 35.8783 48.7681 35.8783 48.8519 35.8783H48.855C49.5123 35.8783 50.0798 35.4007 50.1994 34.7727L50.1996 34.7715C50.2591 34.4148 50.1995 34.0568 49.991 33.729L49.991 33.729L49.9898 33.7272C49.7818 33.4301 49.4831 33.22 49.1231 33.1598C48.3755 33.0108 47.6604 33.5189 47.511 34.263C47.4539 34.4924 47.4787 34.7204 47.5571 34.9452L44.1373 37.2628C43.967 37.1266 43.7671 37.0168 43.5379 36.9878C42.9239 36.8716 42.3395 37.1844 42.0635 37.7278L39.4344 37.1125C39.4251 36.8835 39.3362 36.6581 39.1958 36.4614C38.9879 36.1645 38.6892 35.9545 38.3293 35.8942C37.5817 35.7452 36.8666 36.2533 36.7172 36.9974C36.6607 37.2243 36.6841 37.4763 36.762 37.6806L33.2283 40.0835C33.057 39.9465 32.8568 39.8367 32.6032 39.7804ZM37.586 37.5871L37.5864 37.5869L37.5821 37.5816C37.4777 37.4511 37.4504 37.2938 37.4772 37.1321C37.5304 36.8409 37.7674 36.6554 38.0612 36.6554H38.0614H38.0615H38.0617H38.0619H38.0621H38.0622H38.0624H38.0626H38.0628H38.0629H38.0631H38.0633H38.0635H38.0636H38.0638H38.064H38.0642H38.0643H38.0645H38.0647H38.0649H38.0651H38.0653H38.0654H38.0656H38.0658H38.066H38.0662H38.0664H38.0666H38.0667H38.0669H38.0671H38.0673H38.0675H38.0677H38.0679H38.0681H38.0683H38.0685H38.0686H38.0688H38.069H38.0692H38.0694H38.0696H38.0698H38.07H38.0702H38.0704H38.0706H38.0708H38.071H38.0712H38.0714H38.0716H38.0718H38.072H38.0722H38.0724H38.0726H38.0728H38.073H38.0732H38.0734H38.0737H38.0739H38.0741H38.0743H38.0745H38.0747H38.0749H38.0751H38.0753H38.0755H38.0757H38.076H38.0762H38.0764H38.0766H38.0768H38.077H38.0772H38.0774H38.0777H38.0779H38.0781H38.0783H38.0785H38.0787H38.079H38.0792H38.0794H38.0796H38.0798H38.0801H38.0803H38.0805H38.0807H38.0809H38.0812H38.0814H38.0816H38.0818H38.0821H38.0823H38.0825H38.0827H38.0829H38.0832H38.0834H38.0836H38.0839H38.0841H38.0843H38.0845H38.0848H38.085H38.0852H38.0854H38.0857H38.0859H38.0861H38.0864H38.0866H38.0868H38.0871H38.0873H38.0875H38.0878H38.088H38.0882H38.0885H38.0887H38.0889H38.0892H38.0894H38.0896H38.0899H38.0901H38.0903H38.0906H38.0908H38.091H38.0913H38.0915H38.0918H38.092H38.0922H38.0925H38.0927H38.0929H38.0932H38.0934H38.0937H38.0939H38.0941H38.0944H38.0946H38.0949H38.0951H38.0954H38.0956H38.0958H38.0961H38.0963H38.0966H38.0968H38.097H38.0973H38.0975H38.0978H38.098H38.0983H38.0985H38.0988H38.099H38.0992H38.0995H38.0997H38.1H38.1002H38.1005H38.1007H38.101H38.1012H38.1015H38.1017H38.102H38.1022H38.1024H38.1027H38.1029H38.1032H38.1034H38.1037H38.1039H38.1042H38.1044H38.1047H38.1049H38.1052H38.1054H38.1057H38.1059H38.1062H38.1064H38.1067H38.1069H38.1072H38.1074H38.1077H38.1079H38.1082H38.1084H38.1087H38.1089H38.1092H38.1094H38.1097H38.1099H38.1102H38.1104H38.1107H38.1109H38.1112H38.1114H38.1117H38.112H38.1122H38.1125H38.1127H38.113H38.1132H38.1135H38.1137H38.114H38.1142H38.1145H38.1147H38.115H38.1152H38.1155H38.1157H38.116H38.1162H38.1165H38.1168H38.117H38.1173H38.1175H38.1178H38.118H38.1183H38.1185H38.1188H38.119H38.1193H38.1195H38.1198H38.12H38.1203H38.1205H38.1208H38.1211H38.1213H38.1216H38.1218H38.1221H38.1223H38.1226H38.1228H38.1231H38.1233H38.1236H38.1238H38.1241H38.1243H38.1246H38.1248H38.1251H38.1253H38.1256H38.1258H38.1261H38.1264H38.1266H38.1269H38.1271H38.1274H38.1276H38.1279H38.1281H38.1284H38.1286H38.1289H38.1291H38.1294H38.1296H38.1299H38.1301H38.1304H38.1306H38.1309H38.1311H38.1314H38.1316H38.1319H38.1321H38.1324H38.1326H38.1329H38.1331H38.1334H38.1336H38.1339H38.1341H38.1344H38.1346H38.1349H38.1351H38.1353H38.1356H38.1358H38.1361H38.1363H38.1366H38.1368H38.1371H38.1373H38.1376H38.1378H38.1381H38.1383H38.1385H38.1388H38.139H38.1393H38.1395H38.1398H38.14H38.1403H38.1405H38.1407H38.141H38.1412H38.1415H38.1417H38.142H38.1422H38.1424H38.1427H38.1429H38.1432H38.1434H38.1436H38.1439H38.1441H38.1444H38.1446H38.1448H38.1451H38.1453H38.1456H38.1458H38.146H38.1463H38.1465H38.1467H38.147H38.1472H38.1475H38.1477H38.1479H38.1482H38.1484H38.1486H38.1489H38.1491H38.1493H38.1496H38.1498H38.15H38.1503H38.1505H38.1507H38.151H38.1512H38.1514H38.1516H38.1519H38.1521H38.1523H38.1526H38.1528H38.153H38.1532H38.1535H38.1537H38.1539H38.1542H38.1544H38.1546H38.1548H38.1551H38.1553H38.1555H38.1557H38.1559H38.1562H38.1564H38.1566H38.1568H38.1571H38.1573H38.1575H38.1577H38.1579H38.1582H38.1584H38.1586H38.1588H38.159H38.1592H38.1595H38.1597H38.1599H38.1601H38.1603H38.1605H38.1607H38.161H38.1612H38.1614H38.1616H38.1618H38.162H38.1622H38.1624H38.1627H38.1629H38.1631H38.1633H38.1635H38.1637H38.1639H38.1641H38.1643H38.1645H38.1647H38.1649H38.1651H38.1653H38.1655H38.1657H38.1659H38.1661H38.1663H38.1665H38.1667H38.1669H38.1671H38.1673H38.1675H38.1677H38.1679H38.1681H38.1683H38.1685H38.1687H38.1689H38.1691H38.1693H38.1695H38.1697H38.1699H38.1701H38.1702H38.1704H38.1706H38.1708H38.171H38.1712H38.1714H38.1716H38.1717H38.1719H38.1721H38.1721C38.3311 36.6829 38.4595 36.762 38.5364 36.8902L38.536 36.8905L38.5403 36.8957C38.6441 37.0255 38.6724 37.1827 38.645 37.375C38.5926 37.6876 38.2777 37.8765 37.9543 37.8226C37.7935 37.7958 37.6635 37.7164 37.586 37.5871ZM49.3833 34.5172L49.3827 34.517L49.3814 34.5248C49.3288 34.8403 49.0122 35.0541 48.693 35.0022C48.4004 34.9211 48.1896 34.6283 48.2423 34.3114C48.2954 34.0201 48.5324 33.8347 48.8262 33.8347H48.8264H48.8266H48.8267H48.8269H48.8271H48.8273H48.8274H48.8276H48.8278H48.828H48.8281H48.8283H48.8285H48.8287H48.8288H48.829H48.8292H48.8294H48.8296H48.8297H48.8299H48.8301H48.8303H48.8305H48.8307H48.8308H48.831H48.8312H48.8314H48.8316H48.8318H48.832H48.8321H48.8323H48.8325H48.8327H48.8329H48.8331H48.8333H48.8335H48.8337H48.8339H48.8341H48.8343H48.8345H48.8346H48.8348H48.835H48.8352H48.8354H48.8356H48.8358H48.836H48.8362H48.8364H48.8366H48.8368H48.837H48.8372H48.8374H48.8377H48.8379H48.8381H48.8383H48.8385H48.8387H48.8389H48.8391H48.8393H48.8395H48.8397H48.8399H48.8401H48.8403H48.8406H48.8408H48.841H48.8412H48.8414H48.8416H48.8418H48.842H48.8423H48.8425H48.8427H48.8429H48.8431H48.8433H48.8436H48.8438H48.844H48.8442H48.8444H48.8446H48.8449H48.8451H48.8453H48.8455H48.8457H48.846H48.8462H48.8464H48.8466H48.8469H48.8471H48.8473H48.8475H48.8478H48.848H48.8482H48.8484H48.8487H48.8489H48.8491H48.8493H48.8496H48.8498H48.85H48.8502H48.8505H48.8507H48.8509H48.8512H48.8514H48.8516H48.8519H48.8521H48.8523H48.8526H48.8528H48.853H48.8533H48.8535H48.8537H48.854H48.8542H48.8544H48.8547H48.8549H48.8551H48.8554H48.8556H48.8558H48.8561H48.8563H48.8565H48.8568H48.857H48.8573H48.8575H48.8577H48.858H48.8582H48.8585H48.8587H48.8589H48.8592H48.8594H48.8597H48.8599H48.8601H48.8604H48.8606H48.8609H48.8611H48.8613H48.8616H48.8618H48.8621H48.8623H48.8626H48.8628H48.8631H48.8633H48.8635H48.8638H48.864H48.8643H48.8645H48.8648H48.865H48.8653H48.8655H48.8657H48.866H48.8662H48.8665H48.8667H48.867H48.8672H48.8675H48.8677H48.868H48.8682H48.8685H48.8687H48.869H48.8692H48.8695H48.8697H48.87H48.8702H48.8705H48.8707H48.871H48.8712H48.8715H48.8717H48.872H48.8722H48.8725H48.8727H48.873H48.8732H48.8735H48.8737H48.874H48.8742H48.8745H48.8747H48.875H48.8752H48.8755H48.8757H48.876H48.8762H48.8765H48.8767H48.877H48.8772H48.8775H48.8777H48.878H48.8782H48.8785H48.8787H48.879H48.8793H48.8795H48.8798H48.88H48.8803H48.8805H48.8808H48.881H48.8813H48.8815H48.8818H48.882H48.8823H48.8825H48.8828H48.883H48.8833H48.8835H48.8838H48.8841H48.8843H48.8846H48.8848H48.8851H48.8853H48.8856H48.8858H48.8861H48.8863H48.8866H48.8868H48.8871H48.8873H48.8876H48.8878H48.8881H48.8884H48.8886H48.8889H48.8891H48.8894H48.8896H48.8899H48.8901H48.8904H48.8906H48.8909H48.8911H48.8914H48.8916H48.8919H48.8921H48.8924H48.8926H48.8929H48.8931H48.8934H48.8936H48.8939H48.8941H48.8944H48.8946H48.8949H48.8951H48.8954H48.8956H48.8959H48.8961H48.8964H48.8966H48.8969H48.8971H48.8974H48.8976H48.8979H48.8981H48.8984H48.8986H48.8989H48.8991H48.8994H48.8996H48.8999H48.9001H48.9004H48.9006H48.9009H48.9011H48.9014H48.9016H48.9019H48.9021H48.9023H48.9026H48.9028H48.9031H48.9033H48.9036H48.9038H48.9041H48.9043H48.9046H48.9048H48.905H48.9053H48.9055H48.9058H48.906H48.9063H48.9065H48.9067H48.907H48.9072H48.9075H48.9077H48.9079H48.9082H48.9084H48.9087H48.9089H48.9092H48.9094H48.9096H48.9099H48.9101H48.9103H48.9106H48.9108H48.9111H48.9113H48.9115H48.9118H48.912H48.9122H48.9125H48.9127H48.913H48.9132H48.9134H48.9137H48.9139H48.9141H48.9144H48.9146H48.9148H48.9151H48.9153H48.9155H48.9157H48.916H48.9162H48.9164H48.9167H48.9169H48.9171H48.9174H48.9176H48.9178H48.918H48.9183H48.9185H48.9187H48.919H48.9192H48.9194H48.9196H48.9199H48.9201H48.9203H48.9205H48.9207H48.921H48.9212H48.9214H48.9216H48.9219H48.9221H48.9223H48.9225H48.9227H48.923H48.9232H48.9234H48.9236H48.9238H48.9241H48.9243H48.9245H48.9247H48.9249H48.9251H48.9253H48.9256H48.9258H48.926H48.9262H48.9264H48.9266H48.9268H48.927H48.9273H48.9275H48.9277H48.9279H48.9281H48.9283H48.9285H48.9287H48.9289H48.9291H48.9293H48.9295H48.9297H48.93H48.9302H48.9304H48.9306H48.9308H48.931H48.9312H48.9314H48.9316H48.9318H48.932H48.9322H48.9324H48.9326H48.9328H48.933H48.9332H48.9333H48.9335H48.9337H48.9339H48.9341H48.9343H48.9345H48.9347H48.9349H48.9351H48.9353H48.9355H48.9356H48.9358H48.936H48.9362H48.9364H48.9366H48.9368H48.937H48.9371H48.9372C49.0961 33.8621 49.2245 33.9412 49.3015 34.0694C49.3847 34.2082 49.4341 34.3648 49.3833 34.5172ZM43.7987 38.3165L43.7974 38.3242L43.8467 38.3325L43.7987 38.3165ZM32.9172 41.2602C32.8645 41.5765 32.5464 41.7905 32.2264 41.7372C31.9102 41.6845 31.6962 41.3666 31.7493 41.0467C31.8024 40.7555 32.0395 40.57 32.3333 40.57H32.3335H32.3336H32.3338H32.334H32.3341H32.3343H32.3345H32.3347H32.3348H32.335H32.3352H32.3354H32.3355H32.3357H32.3359H32.3361H32.3363H32.3364H32.3366H32.3368H32.337H32.3372H32.3373H32.3375H32.3377H32.3379H32.3381H32.3383H32.3385H32.3386H32.3388H32.339H32.3392H32.3394H32.3396H32.3398H32.34H32.3402H32.3403H32.3405H32.3407H32.3409H32.3411H32.3413H32.3415H32.3417H32.3419H32.3421H32.3423H32.3425H32.3427H32.3429H32.3431H32.3433H32.3435H32.3437H32.3439H32.3441H32.3443H32.3445H32.3447H32.3449H32.3451H32.3453H32.3455H32.3457H32.3459H32.3461H32.3464H32.3466H32.3468H32.347H32.3472H32.3474H32.3476H32.3478H32.348H32.3482H32.3485H32.3487H32.3489H32.3491H32.3493H32.3495H32.3497H32.35H32.3502H32.3504H32.3506H32.3508H32.351H32.3513H32.3515H32.3517H32.3519H32.3521H32.3524H32.3526H32.3528H32.353H32.3532H32.3535H32.3537H32.3539H32.3541H32.3544H32.3546H32.3548H32.355H32.3553H32.3555H32.3557H32.3559H32.3562H32.3564H32.3566H32.3568H32.3571H32.3573H32.3575H32.3578H32.358H32.3582H32.3585H32.3587H32.3589H32.3591H32.3594H32.3596H32.3598H32.3601H32.3603H32.3605H32.3608H32.361H32.3612H32.3615H32.3617H32.3619H32.3622H32.3624H32.3627H32.3629H32.3631H32.3634H32.3636H32.3638H32.3641H32.3643H32.3646H32.3648H32.365H32.3653H32.3655H32.3658H32.366H32.3662H32.3665H32.3667H32.367H32.3672H32.3674H32.3677H32.3679H32.3682H32.3684H32.3686H32.3689H32.3691H32.3694H32.3696H32.3699H32.3701H32.3704H32.3706H32.3708H32.3711H32.3713H32.3716H32.3718H32.3721H32.3723H32.3726H32.3728H32.3731H32.3733H32.3735H32.3738H32.374H32.3743H32.3745H32.3748H32.375H32.3753H32.3755H32.3758H32.376H32.3763H32.3765H32.3768H32.377H32.3773H32.3775H32.3778H32.378H32.3783H32.3785H32.3788H32.379H32.3793H32.3795H32.3798H32.38H32.3803H32.3805H32.3808H32.381H32.3813H32.3815H32.3818H32.382H32.3823H32.3825H32.3828H32.383H32.3833H32.3835H32.3838H32.384H32.3843H32.3845H32.3848H32.385H32.3853H32.3856H32.3858H32.3861H32.3863H32.3866H32.3868H32.3871H32.3873H32.3876H32.3878H32.3881H32.3883H32.3886H32.3888H32.3891H32.3893H32.3896H32.3898H32.3901H32.3904H32.3906H32.3909H32.3911H32.3914H32.3916H32.3919H32.3921H32.3924H32.3926H32.3929H32.3931H32.3934H32.3936H32.3939H32.3941H32.3944H32.3947H32.3949H32.3952H32.3954H32.3957H32.3959H32.3962H32.3964H32.3967H32.3969H32.3972H32.3974H32.3977H32.3979H32.3982H32.3984H32.3987H32.3989H32.3992H32.3994H32.3997H32.3999H32.4002H32.4004H32.4007H32.401H32.4012H32.4015H32.4017H32.402H32.4022H32.4025H32.4027H32.403H32.4032H32.4035H32.4037H32.404H32.4042H32.4045H32.4047H32.405H32.4052H32.4054H32.4057H32.4059H32.4062H32.4064H32.4067H32.4069H32.4072H32.4074H32.4077H32.4079H32.4082H32.4084H32.4087H32.4089H32.4092H32.4094H32.4097H32.4099H32.4101H32.4104H32.4106H32.4109H32.4111H32.4114H32.4116H32.4119H32.4121H32.4123H32.4126H32.4128H32.4131H32.4133H32.4136H32.4138H32.414H32.4143H32.4145H32.4148H32.415H32.4152H32.4155H32.4157H32.416H32.4162H32.4164H32.4167H32.4169H32.4172H32.4174H32.4176H32.4179H32.4181H32.4184H32.4186H32.4188H32.4191H32.4193H32.4195H32.4198H32.42H32.4202H32.4205H32.4207H32.4209H32.4212H32.4214H32.4216H32.4219H32.4221H32.4223H32.4226H32.4228H32.423H32.4233H32.4235H32.4237H32.424H32.4242H32.4244H32.4246H32.4249H32.4251H32.4253H32.4256H32.4258H32.426H32.4262H32.4265H32.4267H32.4269H32.4271H32.4274H32.4276H32.4278H32.428H32.4283H32.4285H32.4287H32.4289H32.4291H32.4294H32.4296H32.4298H32.43H32.4302H32.4305H32.4307H32.4309H32.4311H32.4313H32.4315H32.4318H32.432H32.4322H32.4324H32.4326H32.4328H32.433H32.4333H32.4335H32.4337H32.4339H32.4341H32.4343H32.4345H32.4347H32.4349H32.4352H32.4354H32.4356H32.4358H32.436H32.4362H32.4364H32.4366H32.4368H32.437H32.4372H32.4374H32.4376H32.4378H32.438H32.4382H32.4384H32.4386H32.4388H32.439H32.4392H32.4394H32.4396H32.4398H32.44H32.4402H32.4404H32.4406H32.4408H32.441H32.4412H32.4414H32.4416H32.4418H32.4419H32.4421H32.4423H32.4425H32.4427H32.4429H32.4431H32.4433H32.4435H32.4436H32.4438H32.444H32.4442H32.4442C32.7583 40.6247 32.9703 40.9414 32.9172 41.2602Z" fill="white" stroke="white" stroke-width="0.1"/>
<path d="M49.5668 41.5928V41.5428H49.5168H48.8548H48.8048V41.5928V53.4382H46.7172V45.2771V45.2271H46.6672H45.9764H45.9264V45.2771V53.4382H43.8389V44.0969V44.0469H43.7889H43.0981H43.0481V44.0969V53.4382H40.9605V47.0904V47.0404H40.9105H40.2485H40.1985V47.0904V53.4382H38.111V43.4349V43.3849H38.061H37.3701H37.3201V43.4349V53.4382H35.2326V45.7376V45.6876H35.1826H34.4918H34.4418V45.7376V53.4382H32.383V48.0403V47.9903H32.333H31.6422H31.5922V48.0403V53.4382H30.5485H30.4985V53.4882V54.1502V54.2002H30.5485H50.6393H50.6893V54.1502V53.4882V53.4382H50.6393H49.5668V41.5928Z" fill="white" stroke="white" stroke-width="0.1"/>
</svg>
